<?xml version="1.0" encoding="utf-8"?>
<!-- Generator: Adobe Illustrator 21.0.0, SVG Export Plug-In . SVG Version: 6.00 Build 0)  -->
<svg version="1.1" id="Layer_1" xmlns="http://www.w3.org/2000/svg" xmlns:xlink="http://www.w3.org/1999/xlink" x="0px" y="0px"
	 viewBox="0 0 304 458" style="enable-background:new 0 0 304 458;" xml:space="preserve">
<style type="text/css">
	.st0{fill:#D22127;}
	.st1{fill:#201A57;}
	.st2{fill:#171515;}
	.st3{fill:#BF2232;}
	.st4{fill:#A9141A;}
	.st5{fill:#890D11;}
	.st6{fill:#E42B3C;}
	.st7{fill:#643E3D;}
	.st8{fill:#2B2B2B;}
	.st9{fill:#471210;}
	.st10{fill:#ABA9AA;}
	.st11{fill:#0F0A08;}
	.st12{fill:#D3D3D3;}
	.st13{fill:#CCCDCD;}
	.st14{fill:#FEFEFE;}
	.st15{fill:#27A89A;}
</style>
<g>
	<path class="st0" d="M227.2,376.7c-1.3,0-2.7,0-4,0c-0.1-0.3-0.2-0.9-0.4-1c-6.9-1.3-12.7-5-18.9-8c-4.2-2.3-7.6-5.7-12-7.6
		c-9.4-7.4-19.5-14-28.5-22.1c-2.8-2.5-5.3-5.6-8.8-7.3c-0.5-0.5-1-1-1.5-1.5c-2.7-3.2-5.4-6.3-9.3-8l0,0c-1.4-3.4-4.3-5.2-7.2-7.1
		c-2.1-2.7-4.4-5.1-7.5-6.8c-1.6-2.2-3.5-4.1-6-5.3c-1.7-2.3-3.7-4.2-6.2-5.7c-0.5-1.9-0.1-3.5,0.9-5.1c1.4-0.8,1.8-2.2,2.2-3.6
		c4.2-5.1,6.3-11,7.1-17.5c0.6-1.7,1.8-1.2,3.1-1.1c7.8,0.9,15.5,1.8,23.3,2.6c1.2,1.1,2.7,1.1,4.2,1.3c16.6,2.9,33.1,5.9,49.3,10.3
		c2.6,0.7,5.3,2.3,8.2,1.2c2.2,0.7,4.3,1.5,6.5,2.2c5.2,2.8,11,4.2,16.7,5.3c17.1,3.4,31.8,10.6,43.3,24c2.7,5,5.8,9.8,7.3,15.3
		c-0.7-6-2.4-11.5-6.9-15.8c-1.4-3.2-3.8-5.5-6.3-7.7c-5.7-5-12.2-8.5-18.8-12.1c0.2-1.4-0.4-2.7-1.2-3.8c-3.1-5-6.2-10-9.4-15
		c2.4-3.3,2-5-1.7-6.4c-0.9-0.3-1.9-0.6-2.8-0.9c-0.2-2.2-1.6-3.9-2.4-5.8c-2.2-5.5-1.6-7.6,3.3-10.9c0.9-0.6,2-1,2.9-1.6
		c4.8-2.7,10.1-4.1,15.3-5.7c2.6-0.8,3.4-1.9,1.4-4.1c-1.1-1.3-2.3-2.6-2.6-4.4c0.7-0.9,1.3-1.7,2-2.6c0.5-0.1,1-0.1,1.3,0.4
		c2.2,8.9,5.3,17.6,8.4,26.2c0.5,1.4,0.5,3.3,2.5,3.9c0.6,1.1-0.1,2.5,1,3.4c-0.1,4.7,1.5,8.7,4.5,12.3c0.5,1.4,1,2.9,1.5,4.3
		c-0.4,0.3-0.7,0.7,0.1,0.9c0,0,0,0,0,0c-0.3,2.2,0.8,4.1,1.5,6.1c3.6,9.8,7.2,19.6,9.3,29.9c1.4,7,2.3,14.1-2.5,20.3
		c-0.1-2.6,1.6-5.2-0.4-8.5c-0.4,3.9-0.7,7-1,10.1c-2.3,4.2-4.6,8.4-6.9,12.6c0,0,0,0,0,0c-1,0-1.5,0.5-1.5,1.5c0,0,0,0,0,0
		c-1,0-1.5,0.5-1.5,1.5c0,0,0,0,0,0c-3.8,1.2-6.4,4-9.1,6.8c-0.4,0.3-0.9,0.5-1.3,0.8c-0.7-0.1-1.4,0-1.6,0.8c0,0,0.1,0,0.1,0
		c-1.3-0.4-2.4,0.3-3.5,0.9c-10,5.3-20.6,7.6-31.9,7.4C229.6,376.1,228.3,375.7,227.2,376.7z"/>
	<path class="st1" d="M157.2,449.4c-28.8,0-57.6,0.1-86.3,0.1c-0.6,0-1.3,0-1.7-0.5c0-0.4-0.1-0.9-0.1-1.3c0.1-1.7,0.2-3.5,0.2-5.2
		c-0.4-16.7-0.8-33.3-1.2-50c-0.2-10.9-0.2-21.9-0.3-32.9c5.5-1.8,11.1-3.7,16.6-5.5c0.4,3.1,0.1,6.2-0.4,9.3
		c-0.3,1.7,0.7,2.2,2.1,2.4c1.1,0.2,2.2,0.1,2.1-1.3c-0.3-5,2.1-9.3,2.9-14c0.8-0.3,1.7-0.5,2.4-0.9c8.4-4.2,16.8-8.4,25.2-12.8
		c5.9-3.1,11.7-6.4,17.5-9.7c0.7,0.3,1.5,0.8,1.3,1.6c-1.3,5.2,0.8,10.4,0.3,15.6c0,0.7-0.1,1.5-0.1,2.2c1.8,14.8,3.3,29.6,6.3,44.2
		c1,5.1,1.1,10.4,3.3,15.1c0.3,2.2,0.6,4.4,1,6.6C151.2,424.9,153.8,437.3,157.2,449.4z"/>
	<path class="st0" d="M44.9,358.7c-1.1,0.5-2.2,0.2-3.2,0c-0.1-1.4-1.2-1.2-2.2-1.4c-7.6-1.6-15.3-3.2-22.5-6.2
		c-3-1.3-5.2-3.2-5.8-6.5C10,335,8.6,325.6,9.8,316c0.7-2,1.4-4,2.3-5.9c3.6-7.8,8.2-15,12.4-22.5c1.8-3.3,4.7-6.1,5.2-10.1
		c0,0,0,0,0,0c1.6-0.1,1.7-1.6,2.4-2.6c3.7-5.3,7.4-10.5,12.2-14.9c6.8,2.6,12.6,6.6,17.2,12.3c-1.2,2.2-3.5,3.1-5.2,4.8
		c-8.4,8.4-16.4,17-23.9,26.3c-3,3.8-6,7.7-7.9,12.2c-0.8,1.8-1.1,3.6,0.3,5.3c1.5,1.8,3.2,1,4.8,0.3c3.9-1.7,7.8-3.4,11.6-5.2
		c10.3-4.9,21.2-8.1,32.6-8.9c15.8-1.1,30.9,2.1,44.6,9.9c7.4,4.2,14.1,6.3,21.9,2c1.2,0.8,2.1,2.2,3.7,2.3c0,0,0,0,0,0
		c-0.4,0.9-1,1.4-2,1.6c-1.4,1.3-3.8,0.8-4.8,2.8c-0.3,0.3-0.5,0.5-0.8,0.8c-15.3,7.7-30.6,15.5-45.9,23.2c-0.3,0.1-0.4,0.6-0.6,0.9
		c0,0,0,0,0,0c-1.2-0.3-2.1,0.1-3,0.7c-1.5,0.5-3.1,1-4.5,1.6c-9.4,4.5-19.2,6.6-29.7,5.9C50,358.7,47.4,357.7,44.9,358.7z"/>
	<path class="st0" d="M201.5,449.4c-14.5,0-28.9,0-43.4,0c-2.8-12.2-5.7-24.4-8.5-36.6c-0.3-3.1-1-6.1-2.1-9.1
		c-0.2-1.1-0.3-2.2-0.5-3.3c-1.4-8.8-3.7-17.5-4.3-26.5c2,0.4,4.1,1.2,4.5-1.9c1.1-8.2,5.9-15.4,6-23.9c3.8,1,5.1,4.5,7.4,7
		c7.1,7.7,13.4,15.9,19.8,24.2c1.3,1.7,1.8,3.5,1.6,5.6c-0.4,3.1-0.7,6.2-1.4,9.2c-1.9,8.3-2,8.3,6.7,8.2c0.2,0.2,0.5,0.4,0.7,0.7
		c0.3,1.1-0.9,2.2,0.1,3.2c-0.2,1.6-1.7,2.3-2.4,3.5c-4,0.9-7.2,3.8-11.3,4.6c-4.7,0.9-9.4,2.2-14.1,3.3c5.7,1,11.4,1.5,17.1,2.1
		c6.3,0.6,11.6,2.3,14.5,9C194.9,435.5,199.4,441.9,201.5,449.4z"/>
	<path class="st0" d="M259.3,225.5c0,0,0.1,0.3,0.1,0.3c0.7,1.1,1.4,2.2,2.2,3.3c-14.4,6.5-28.2,13.8-39.9,24.7
		c-8.2,7.6-13.2,16.9-15.7,27.7c-2.5-0.2-4.9-0.5-7-2.1c3.8-6.2,6.1-12.9,7.7-19.9c0.2-0.8,0.4-1.8-0.6-2.3c-1-0.5-2,0.2-2.7,0.7
		c-5.9,4.1-11.9,8.1-17.7,12.3c-2.1,1.5-4.8,2.6-6,5.3c-7.3-0.4-14.3-2.8-21.6-3.9c0-3.5,0-7,0-10.4c1.2-1.7,2.3-3.5,2.9-5.6
		c0.9-0.9,1.8-1.8,1.6-3.2l0,0.1c0.4-0.1,0.8-0.3,1.2-0.4c3.9-0.6,7.7-1.3,11.6-1.7c4.4-0.4,8.7-1.8,13.1-0.3c2.2,0.8,4,2.4,6.4,2.7
		l0.1,0.1c-0.1,0.8,0.5,0.9,1.1,1.1c1.2,2.2,2.1,2.5,3.1-0.2c1.6-4.1,3.3-8.1,4.8-12.2c0.8-2.1,1.9-3.1,4.1-3.8
		c9.4-3,18.5-6.6,27.2-11.4c4.2-2.3,7.8-5.8,12.6-7C251.5,221.9,255.2,224,259.3,225.5z"/>
	<path class="st2" d="M101.7,69.1c2.1-9.5,8.3-15.9,15.9-21.3c1.9-1.4,2.8-2.8,2.7-5.3c-0.3-7,0.3-13.9,2.6-20.6
		c0.7-0.5,0.7-1.2,0.6-1.9c0.2-0.4,0.4-0.7,0.6-1.1c0.4,0,0.9,0.1,1.3,0.1c-2.5,7.5-4.3,15.2-4.1,23c0.1,5.3,0.3,10.6,0.6,15.9
		c-0.3,1.3-0.7,2.6,0.5,3.7c0.4,0.4-0.1,1.7,1.3,1.1c1.1-0.5,1.6-2,3.2-1.5c-3.7,6.8-3.7,6.8-2.9,9c0.8-0.1,1.3-1.4,2.7-0.9
		c-1,1.3-1.8,2.2-2.5,3.2c-0.6,0.8-1.1,2.1,0.1,2.5c1.9,0.6,1.4,1.3,0.5,2.3c-0.7,0.9-0.8,1.8-0.3,2.8c1.2,0.3,1.8-1.4,3.4-0.7
		c-5.6,5.5-0.5,10.4,0.7,15.6c1.5-6.5,3.4-12.8,6.2-18.7c4.7-9.9,11.9-16.9,22-21.4c6-2.6,12.2-2,18.4-2.8c11-1.4,12.3-3.4,8.1-13.6
		c0.3-0.2,0.6-0.5,0.9-0.7c0.5,0.3,1,0.6,1.5,0.9c0.2,0.4,0.5,0.5,0.7,0.1c4.8-0.4,9.7,0,14.4,0.9c-0.6,2.7-1.2,5.4-1.8,8.1
		c-3.8-1.6-7.7-3.1-11.9-4.8c0.1,1.6,0.2,2.7,0.2,3.8c-0.3,3.6-2.4,5.6-5.9,6.2c-2.6,0.4-5.1,0.9-7.7,1.4c-5.1,0.2-10.3-0.6-15,2.3
		c-2.8,0.6-5.2,1.9-7.5,3.6c-0.4,0.1-0.9,0.2-0.8,0.8l0-0.1c-2,0.2-3.2,1.7-4.6,3c-7.6,7-10.8,16.2-13.4,25.8
		c-1.4,4.9-1.6,10.1-2.6,15.1c-6.3-13.7-8.3-28.2-9.5-42.9c-3.3,6.3-5.1,13-4.6,19.9c0.4,6.4-1.8,11.1-7,14.6
		c-0.5,0.4-1.6,0.6-1.2,1.5c0.3,0.8,1.2,0.8,1.9,0.4c1.9-1,2.3-0.8,1.3,1.3c-0.3,0.6,0.9,0.4,1.4,0.4c0.3,0.3,0.6,0.5,0.9,0.8
		c-0.4,0.9,0.1,1.4,0.7,1.9c0.8,0.5,3.9,4.3,4.5,5c3.6,4.3,4.5,10.3,9,14.1c-1,0.8-1.3,1.8-0.7,2.9c-0.5,0-1,0-1.5,0.1
		c-0.8-2.8-2.3-5.1-4.5-7c-0.6-0.9-1.3-1.6-2.3-1.9c-2.3-2.2-4.5-4.5-6.8-6.7c0.3-0.3,0.6-0.6,0.9-0.9c1.4,1.2,2.7,2.3,4.1,3.5
		c-1.8-3.3-3.6-6.4-7.2-7.9l0,0c-0.2-0.8-0.5-1.4-1.5-0.8l0,0c0.4-0.9-0.3-0.8-0.8-0.8l0,0c-0.1-0.9-1-0.8-1.6-1.2
		c-1-0.7-1.6,0.3-2.3,0.5c-3.3-3.2-7-2.8-10.7-1.2c-9.9,4.3-15.7,15.4-13.4,25.9c3.1,14.2,7.6,27.5,21.8,34.8
		c0.6,0.3,1.1,0.8,0.8,1.5c-0.3,0.7-1.1,0.5-1.6,0.4c-1.6-0.4-3.2-1.2-4.8-1.4c-1.5-0.2-3.2,0.3-3.1-2.2c0-0.3-0.6-0.9-1-0.9
		c-0.7-0.1-1,0.5-1.3,1.1c-2.5,6.2-2.9,9.5,4.4,11.1c4,0.9,8.4,1.6,11.4,4.9c-0.2,0.2-0.3,0.3-0.4,0.5c-2.9-0.8-5.7-2-9.4-1.8
		c2.9,3.7,5.6,7,8.1,10.3c2.6,3.5,5.1,7,7.7,10.5c-1.2,0-2.5-0.1-3.7-0.1c-0.1-1.3-0.7-2.2-2.2-2.2c0,0,0-0.1,0-0.1
		c0-0.2,0-0.4,0-0.7c-4-6-9.5-11-12.8-17.5c-0.5-1-1.3-1.6-2.5-2c-4.8-1.7-6.3-3.6-4.7-8.4c2.1-6.5,1.6-12-3.2-17
		c-0.4-1.2-0.5-2.6-2.1-3c-1.5-6.4-4.1-12.4-5.3-18.9c-1.1-6.1-0.7-11.7,3.2-16.6c4.6-5.8,8.9-12.1,17.4-12.7
		c2.6-0.2,2.9-2.7,2.9-4.9C100.3,83.8,100.5,76.4,101.7,69.1z M102.6,89.5c-0.5,1.5-1,3-1.5,4.6c-0.2,0.7-0.7,1.5,0.2,1.9
		c0.8,0.4,1.7,0.3,2.2-0.7c1-2,2.9-3.3,4.8-4.1c3.1-1.3,4-3.5,4-6.7c-0.1-8.7,2.1-16.9,6.7-24.4c1-1.7,1.7-3.3,0.9-5.3
		c0.1-1.2,0.4-2.4-0.6-3.8c-5.2,4-10.3,8-12.5,14.4C104.1,73.2,102.9,81.3,102.6,89.5z"/>
	<path class="st0" d="M71.9,234c0-0.2,0.1-0.3,0.3-0.3c0.1,0.2,0.2,0.5,0.4,0.6c1.8,1.7,3.3,0.7,4.7-0.6c2.7-0.5,4.7-2.3,6.9-3.6
		c4-2.3,4-2.3,5.6,1.9c1.6,4.3,3.1,8.6,4.7,12.9c-0.6,1.7-1.2,3.3-1.7,5c-0.3,0.5-0.5,1.1-0.8,1.6c-1.9-1.3-3.8-1-5.5,0.1
		c-1.7,1.2-3.5,2.3-5.1,3.7c-6.2,5.1-13,9.4-17.9,15.9c-0.9-0.1-1.5-0.8-2.1-1.4c-4.4-4.9-9.9-8.2-15.9-10.9
		c4.6-5.6,10.6-9.7,15.7-14.8c2.6-2.6,6.5-3.7,7.7-7.7c0,0,0,0,0,0C70.6,236.7,71.7,235.9,71.9,234z"/>
	<path class="st3" d="M199.1,47.8c0.6-2.7,1.2-5.4,1.8-8.1c1.3-0.8,1-2.2,1.1-3.4c0.3-5.6,0.3-11.2-0.1-16.9
		c5.2,6.6,6.5,14.7,7.8,22.7c0,0.9,0,1.7,0.1,2.6c0,1.9,0,3.8-0.1,5.7c-0.8,0.9-0.5,2-0.6,3.1c-0.3,2-0.6,4-0.9,6.1l0,0
		c-0.4,0.1-0.6,0.4-0.5,0.8c-1.3,4.8-3,9.5-5.2,14c-3,6.2-7.5,11.4-11.6,16.9c-7.2-0.5-11-4.6-12.2-12.8c0.4-1.3,0.8-2.5,1.2-3.8
		c8.9-6.5,15.1-15,18.6-25.5C198.7,48.6,198.9,48.2,199.1,47.8z"/>
	<path class="st3" d="M101.7,69.1c-1.3,7.3-1.5,14.7-3.3,21.9c-5.4-2-7.8-6.9-10.6-11.1c-9.1-14.1-12.2-29.6-9.3-46.1
		c0.9-5.2,2.3-10.4,6.7-15C84.8,25.2,84.2,31.1,85,37c1.6,11.3,6,21.3,13.5,29.9C99.4,67.8,100.1,69.1,101.7,69.1z"/>
	<path class="st2" d="M209.8,44.6c0-0.9,0-1.7-0.1-2.6c8.8,1.9,16,6.7,22.6,12.5c19.1,16.8,26,38.2,24.5,63
		c-1.1,17.9-5,34.9-13.4,50.9c-0.6,1.1-1.1,2.2-1.2,3.5c-1.3,0.3-0.9,1.4-1,2.3c-0.9-0.1-1.6,0.3-2.3,1c-3.3,3.5-7.4,5.6-11.7,7.4
		c-0.8,0-1.4,0.4-1.8,1.1l-0.3,0.1c-0.4,0.2-0.8,0.4-1.2,0.6c-0.1,0.1-0.2,0.2-0.4,0.2c-0.4,0.2-0.8,0.4-1.1,0.6
		c-0.3,0.5-0.6,1.1-0.9,1.6c-0.7-0.3-1.3-1.2-2.2-0.3c0,0.4,0,0.7,0,1.1c0,0,0-0.1,0-0.1c-0.5,0-1.1,0-1.6,0
		c-2.5,0.6-5.3,0.5-7.5,2.3c-6.4,1.9-12.7,4-19.5,4.3c-1.5-2.6,0.9-2.8,2.3-3.7c0.7-0.4,1.7-1.3,2-1.1c3.1,1.8,5.7-0.5,8.5-1.1
		c8.6-1.8,16.5-5.5,24.4-9.1c6.4-3,10.8-7.7,13.9-14c9.9-20.5,13.8-42.1,11.3-64.7C250.3,73.2,235.2,54.8,209.8,44.6z"/>
	<path class="st2" d="M95.9,210.3c-1-2.7-3.3-4.2-5.3-6.1c1-1.1,2.4-0.4,3.6-0.6c0,0,0,0,0,0c-0.1,0.2-0.2,0.5-0.3,0.7
		c-0.1,0.1-0.2,0.2-0.2,0.3c0.1,0.2,0.2,0.4,0.3,0.5c5.1,5.7,10.7,10.9,16.6,15.8c1.1,0.9,2.6,2.6,3.8,0c0.6-1.2,1.3-2.4,0.3-3.8
		c-0.3-1.5,0-3-0.8-4.4c-0.3-2.3-0.2-4.7-1.2-6.9c2.1-0.5,3,0.1,3.4,2.5c0.9,5.7,2.1,11.3,3.3,16.9c1.8,8.6,2.4,9.1,11.1,9.8
		c1.2,0.1,2.5,0.1,3.7,0c2.9-0.2,5.3-1.4,6.5-4.3c0.8-1.8,1.6-3.7,2.4-5.5c0.9-1,1.3-2.3,1.6-3.6c3-5,6-9.9,9.6-14.4
		c0.7-0.1,0.8-0.7,1-1.2c0.6,0,1.2,0,1.8,0.1c0,0-0.1,0.2-0.1,0.2l0.1,0.2c0.5,0.9,0.9,1.8,1.3,2.7c-1.2,1-2.7-1.7-3.1,0.2
		c-0.6,2.2-4.5,2.9-2.5,6c-0.2,0.2-0.3,0.3-0.5,0.5c-1-0.3-2-0.9-1.9,1c0,0.5,1.1,1.2,0.3,1.5c-4.5,1.3-2.4,6.1-4.7,8.5
		c-1.9,0.2-2,1.6-2.3,3c-0.1,0.1-0.3,0.3-0.4,0.4c0.1,0,0.2,0,0.3,0c0-0.2,0-0.3,0.1-0.5c1.6,0,3-0.1,3-2.2c0.7,0.3,1.5,0.2,2.1-0.2
		c10-6.1,20.2-11.8,29.9-18.4c2.2-1.5,3-3.6,3.8-5.8c0.6-1.5-0.4-1.4-1.4-1.1c0.8-0.5,1.6-1,2.5-1.6c1.2-1.3,1.2-2.9,1.4-4.5
		c1.6-3.3,1.6-3.3,3.7-1.2c-0.8,2.1-1.4,4.3-2.4,6.2c-1.7,3.1-1.8,7.1-5,9.4c-4.9,3.5-10.2,6.6-15.3,9.9c-3.3,2.1-7.5,3-9.7,6.6
		c0.1,0.7,0.1,1.4,0.2,2c-2.2-1.2-4.1-0.8-6.1,0.8c-2.2,1.8-1.3,3.9-0.8,6c-0.8,0-1.7,0.1-2.2-0.8l0.1-0.1c0.9-1.3,1.3-2.5-0.4-3.6
		c-1.5,1.9-4.6,1.7-5.4,4.4c-1.8,0-3.5,0-4.8,1.5c-1.2,1.1,0,1.4,0.7,1.8c4,2.5,8.1,4.2,12.9,3.5c0.1,0.2,0.2,0.4,0.1,0.6
		c-0.3,1.1-1,1.5-2.2,1.6c-5,0.1-9.6-2.3-14.8-1.9c-1.7,0.1-3.8-1.8-4.8-3.8c-0.8-1.6-2.3-2.3-3.6-2.2c-3.1,0.2-5-1.7-7.1-3.4
		c-0.2-0.5,0.2-1.3-0.7-1.5c-0.1-1.5,0-3.1-0.8-4.5c0-0.5,0-0.9,0-1.4c-0.6-1-0.2-2.8-1.7-2.8c-1.6,0-2.4,1.5-2.7,3
		c-0.1,0.6-0.1,1.2-0.1,1.8c-0.2,0.5-0.4,1.1-0.6,1.6c-0.8,0.2-1.6,0.4-2.4,0.7c0.2-0.7,0.3-1.5,0.7-2.1c1.6-2.9,1.4-5.1-1.6-7.2
		c-2.6-1.8-4.8-4.2-7.2-6.4c-0.3-0.6-0.9-0.8-1.5-0.7c-0.5-1.5-1.7-2.3-3-3C96.3,210.8,96.1,210.5,95.9,210.3z"/>
	<path class="st4" d="M201.5,449.4c-2.1-7.5-6.6-13.8-9.6-20.8c-2.9-6.7-8.2-8.4-14.5-9c-5.7-0.6-11.3-1.1-17.1-2.1
		c4.7-1.1,9.4-2.3,14.1-3.3c4.1-0.8,7.3-3.7,11.3-4.6c0.2,2.6,1.4,4.4,4,5.2l-0.1,0.2c0,0,0.1-0.2,0.1-0.2c1.6,4.8,5.4,8.1,8.4,12
		c5.6,7.4,11.7,14.4,16.3,22.6C210.1,449.4,205.8,449.4,201.5,449.4z"/>
	<path class="st5" d="M198.7,374.6c-0.2,0.2-0.3,0.4-0.5,0.6c-1.6,0-1.7,2.3-3.3,2.4c-8.3-8-16.7-15.9-25-23.9
		c-5-4.8-10.1-9.5-15.6-13.8c0-2.1-0.3-4.2,0.7-6.2c3.6,0.3,5.1,3.4,7.3,5.4c8.7,7.6,18.3,13.9,27.3,21c0.4,1.1,1.2,1.6,2.3,1.6l0,0
		c1.6,4.4,6,6,9,9C200.1,372,197.9,372.5,198.7,374.6z"/>
	<path class="st2" d="M163.8,252c-0.4,0.1-0.8,0.3-1.2,0.4c-0.4-1.5,0.5-2.5,1.2-3.7c2.2-3.7,2-4-2.1-4c-1.2,0-2.4,0-3.7,0
		c0-0.7,0-1.3,0-2c33,0.2,63.6-7.7,90.7-27.2c0,0.6,0.1,1.2,0.1,1.7c-0.1,0.4-0.2,0.8-0.3,1.3c-0.2,0.2-0.3,0.5-0.5,0.7
		c-4.8,1.3-8.4,4.7-12.6,7c-8.7,4.7-17.8,8.4-27.2,11.4c-2.2,0.7-3.3,1.7-4.1,3.8c-1.5,4.1-3.3,8.1-4.8,12.2c-1,2.6-2,2.4-3.1,0.2
		c-0.1-0.7-0.5-0.9-1.1-1.1c0,0-0.1-0.1-0.1-0.1c-1.1-3.4-3.4-6-5.2-8.9c-0.9-1.3-2.1-1.4-3.6-1.2c-2.9,0.5-5.9,1.2-8.8,1.2
		C171.1,243.9,166.3,246,163.8,252z"/>
	<path class="st6" d="M62,198c1.1-3.9,4.9-3.8,7.8-5c1.2-0.5,2.6-0.6,3.7-1.4c3.2-0.3,6.4,0.1,9.5,0.7c5.9,1.2,11.9,0.3,17.9,0.5
		l0,0c-1.6,1.5-3.5,2.7-4.6,4.4c-2.3,3.8-5.5,3.6-9,2.6c-5.5-1.6-11-3-16.8-2.5C67.7,197.7,64.9,198.7,62,198z"/>
	<path class="st7" d="M62,198c2.9,0.7,5.7-0.3,8.5-0.5c5.8-0.5,11.3,0.9,16.8,2.5c3.5,1,6.7,1.1,9-2.6c1.1-1.8,3-3,4.6-4.4
		c1.6,1.3,3.1,3.2,4.7,0c1.5,0,2.1,0.9,2.2,2.2c-1.5,0.1-2.9,0-4.4,0.2c-2.7,0.3-4.2,2.7-3.1,5.1c-0.1,0.2-0.1,0.5,0,0.7
		c-2.3,0.2-4.2,1.3-6.1,2.3c-1.2,0.3-2.5-0.5-3.6,0.6c-3.4,0.4-6.6-0.2-9.8-1.6c-4.6-2-9.4-2.2-14.1-0.3c-1.7,0.6-3.5,1.1-4.9-0.4
		C60.8,200.8,60.5,199.2,62,198z"/>
	<path class="st8" d="M184.2,37.8c-0.3,0.2-0.6,0.5-0.9,0.7c-3.3-3.7-7.5-5.6-12.1-6.9c-9.5-2.5-18.9-5.6-27.1-11.3
		c-1.5-1-2.7-0.9-4.1,0c0-0.3,0-0.5,0-0.8c0.2-0.4,0.7-1.1,0.5-1.3c-2.2-2.6-4.7-4.9-8.2-5.3c-2.8-0.3-4.3,2.1-5.7,4.2
		c-0.4,0.6-0.8,1.3-1.2,1.9c-0.4,0-0.9-0.1-1.3-0.1c0.4-2.8,2.3-4.7,4.2-6.4c2.6-2.3,5.6-2,9.4,1c6.6,5.1,13.4,9.8,21.4,12.5
		c5.2,1.8,10.4,3.3,15.6,4.9C178.7,32.2,182.1,34.1,184.2,37.8z"/>
	<path class="st0" d="M289.3,342.2c4.8-6.3,3.9-13.4,2.5-20.3c-2.1-10.3-5.7-20.1-9.3-29.9c-0.7-2-1.8-3.9-1.5-6.1
		c1.8,1.4,1.9,3.6,2.6,5.5c3.8,10.4,7.9,20.8,9.7,31.8c0.8,5.3,1.8,11.1-0.8,15.8c-3.4,6-5.8,12.9-11.5,17.5
		c2.3-4.2,4.6-8.4,6.9-12.6C288.7,343.7,289.3,343.2,289.3,342.2z"/>
	<path class="st0" d="M96.4,211c1.3,0.7,2.6,1.4,3,3c-2.6,1.8-5.9,2.9-7.5,6l0,0c-3.2-0.4-4.5,3.5-7.5,3.5c-0.5-0.2-1-0.4-1.5-0.7
		c-0.2-0.2-0.4-0.5-0.6-0.7c-1.5-4,0.7-5.8,4.2-7.1C89.9,213.9,93.2,212.4,96.4,211z"/>
	<path class="st8" d="M83.1,192.5c-3.1-0.6-6.3-1-9.5-0.7c-0.1,0-0.3-0.1-0.3-0.1c-0.1,0.2-0.2,0.3-0.2,0.5c0.1,0,0.2,0.1,0.4,0.1
		c2.3-0.5,5.4,1.1,6.6-0.9c1.1-1.9-1.6-3.8-2.8-5.7c-4.3-7-7.9-14.3-11-21.9c-1.5-3.6-0.7-5.8,2.3-7.7c0,0.9,0.5,1.6,1.1,2.3
		c0,0.3-0.1,0.6-0.1,0.9c-0.2,0.3-0.5,0.5-0.7,0.8c-1.6,0-1.6,0-1.2,1.6c2,6.7,5.3,12.8,8.6,19C78.4,184.7,81.7,188.1,83.1,192.5z"
		/>
	<path class="st9" d="M241.3,174.3c0.1-0.9-0.3-2,1-2.3c4.4,6,5.8,13.2,7.2,20.3c0.5,2.2,1.1,4.4,1.6,6.6c-0.1,1.3-0.9,1.8-2.1,1.7
		C246.5,191.8,244.4,182.9,241.3,174.3z"/>
	<path class="st7" d="M66.3,439.8c-0.4-5.5-0.8-10.9-1-16.4c-0.4-11.1-0.7-22.2-1-33.3c-0.3-10-0.5-19.9-0.7-29.9
		c1.3,1.2,0.7,2.8,0.8,4.2c0.4,4.9-0.6,9.8,0.7,14.6c0.5,16,1.1,32,1.6,48c0.1,4.2-0.6,8.4,0.6,12.6
		C66.9,439.7,66.6,439.7,66.3,439.8z"/>
	<path class="st9" d="M65,379c-1.3-4.8-0.3-9.7-0.7-14.6c-0.1-1.4,0.6-3-0.8-4.2c-0.8-0.1-1.5-0.2-2.3-0.3c-3.2-0.8-6.5-0.8-9.7,0
		c-2.2-0.4-4.6,0.1-6.6-1.3c2.6-1,5.1,0,7.6,0.2c10.5,0.7,20.3-1.5,29.7-5.9c1.4-0.7,3-1.1,4.5-1.6c0,0.4,0,0.8,0,1.2
		c-1,0.2-1.8,0.6-2.2,1.6c-5.5,1.8-11.1,3.7-16.6,5.5c-2.2-0.4-3.1,0.4-3,2.8C65,367.9,64.9,373.5,65,379z"/>
	<path class="st0" d="M29.6,277.6c-0.4,4-3.3,6.8-5.2,10.1c-4.2,7.5-8.8,14.7-12.4,22.5c-0.9,1.9-1.5,3.9-2.3,5.9
		c-0.3,0-0.5,0-0.8,0c1.4-8.6,6.7-15.5,10.9-22.7C22.9,288,25.3,282.2,29.6,277.6z"/>
	<path class="st4" d="M214.3,449.4c-4.6-8.2-10.7-15.1-16.3-22.6c-2.9-3.9-6.7-7.2-8.4-12c4.2,3.7,7.1,8.5,10.5,12.8
		c5,6.4,9.8,13.1,14.6,19.7C215.4,448,217.3,449.4,214.3,449.4z"/>
	<path class="st0" d="M227.2,376.7c1.1-1,2.4-0.5,3.6-0.5c11.3,0.3,21.9-2.1,31.9-7.4c1.1-0.6,2.2-1.3,3.5-0.9
		c-3.8,3.7-8.8,4.8-13.5,6.3c-7.1,2.3-14.4,3.7-22,3.4C229.4,377.5,228.1,377.8,227.2,376.7z"/>
	<path class="st0" d="M11.1,344.4c0.6,3.4,2.8,5.3,5.8,6.5c7.2,3,14.9,4.7,22.5,6.2c1,0.2,2.1,0,2.2,1.4c-9.9-1.1-19.4-3.6-28.2-8.3
		c-1.9-1-3.3-2.6-3-5.1C10.7,345,10.9,344.7,11.1,344.4z"/>
	<path class="st7" d="M69.6,158.4c-0.5-0.7-1.1-1.4-1.1-2.3c0,0,0,0.1,0,0.1c0.3-0.3,0.6-0.6,0.9-0.9c0,0-0.2,0.2-0.2,0.2
		c0.3-0.3,0.6-0.6,0.9-0.9c0,0-0.1,0.2-0.1,0.2c0.3-0.3,0.6-0.7,0.8-1c2.7-3.6,5.9-6.6,9.3-9.5c1.6,0.4,1.7,1.8,2.1,3
		c-1.6-0.1-2.4,1.2-3.3,2.1C75.8,152.4,72.8,155.4,69.6,158.4z"/>
	<path class="st0" d="M68.8,236.5c-1.2,3.9-5.2,5.1-7.7,7.7c-5.1,5.1-11,9.3-15.7,14.8c-0.4,0.1-0.8,0.1-1.2,0.2
		c-0.1-0.1-0.2-0.2-0.3-0.4C51.4,250.6,59.7,243.1,68.8,236.5z"/>
	<path class="st2" d="M149.6,412.8c2.8,12.2,5.7,24.4,8.5,36.6c-0.3,0-0.6,0-0.9,0c-3.4-12.1-6.1-24.5-8.8-36.8
		C148.8,412.7,149.2,412.7,149.6,412.8z"/>
	<path class="st0" d="M274.1,265.1c-2-0.5-1.9-2.5-2.5-3.9c-3.1-8.6-6.3-17.3-8.4-26.2c0.3-0.3,0.5-0.7,0.8-1
		C267.3,244.4,270.7,254.7,274.1,265.1z"/>
	<path class="st4" d="M189.7,414.8c-2.6-0.7-3.8-2.6-4-5.2c0.8-1.2,2.2-1.9,2.4-3.5c1-1.1,1.8-2.2-0.1-3.2c-0.2-0.2-0.5-0.4-0.7-0.7
		c-1.5-1.7-3.9,0-5.8-1.5c1.4-1,1.8-2.6,2.5-3.9c0.2,0.1,0.3,0.3,0.5,0.4c-0.9,1.8-0.3,2.4,1.7,2.8c4,0.8,5.7,4.2,3.2,7.1
		C186.7,410.3,188.1,412.3,189.7,414.8z"/>
	<path class="st0" d="M44.2,260.1c-4.7,4.4-8.5,9.7-12.2,14.9c-0.7,0.9-0.8,2.5-2.4,2.6c2.8-7.7,8.1-13.6,14.3-18.8
		c0.1,0.1,0.2,0.2,0.3,0.4C44.2,259.5,44.2,259.8,44.2,260.1z"/>
	<path class="st8" d="M249,200.6c1.2,0.1,2-0.4,2.1-1.7c1.7,3.9,2.1,8.1,3,12.2c0.6,2.6-2,3.4-3.5,4.8c-0.1-0.1-0.3-0.3-0.4-0.4
		c0-0.4,0-0.7,0-1.1c2.3-2.7,2-8.4-0.7-11.7c-0.2-0.2-0.5-0.5-0.7-0.7C248.8,201.5,248.9,201,249,200.6z"/>
	<path class="st4" d="M194.9,377.6c1.6-0.1,1.6-2.3,3.3-2.4c-4.3,6.9-8.5,13.8-12.8,20.6c-0.2-0.1-0.3-0.3-0.5-0.4
		c0.5-1.8,1.6-3.3,2.4-4.9C189.6,386,193.3,382.5,194.9,377.6z"/>
	<path class="st0" d="M11.1,344.4c-0.2,0.3-0.5,0.5-0.7,0.8C8.5,335.6,8,325.8,9,316c0.3,0,0.5,0,0.8,0C8.6,325.6,10,335,11.1,344.4
		z"/>
	<path class="st7" d="M96.4,211c-3.3,1.4-6.5,2.8-9.9,4c-3.4,1.2-5.6,3-4.2,7.1c-2.8-2.8-2.6-5.4,1.1-7.1c4-1.9,8.3-3.2,12.4-4.8
		C96.1,210.5,96.3,210.8,96.4,211z"/>
	<path class="st0" d="M203.8,367.7c6.2,2.9,12,6.7,18.9,8c0.2,0,0.3,0.6,0.4,1c-6.2-1-12-3.4-17.4-6.6c-1.2-0.7-2.2-1-3.2,0.2
		c-0.2-0.1-0.3-0.3-0.5-0.4c0.1-0.5,0.1-0.9,0.1-1.4C202.9,368.5,203.5,368.4,203.8,367.7z"/>
	<path class="st7" d="M248.1,219.3c0.2-0.2,0.3-0.5,0.5-0.7c3.5,2.3,8.1,3.2,10.7,6.9C255.2,224,251.5,221.9,248.1,219.3z"/>
	<path class="st0" d="M279.5,280.8c-2.9-3.6-4.5-7.6-4.5-12.3C277.1,272.4,278.4,276.6,279.5,280.8z"/>
	<path class="st7" d="M73,233.2c2.7-2.6,5.8-4.7,8.9-6.8c0.1,0.2,0.3,0.3,0.5,0.5c-0.6,0.7-1.1,1.4-1.7,2c-2.1,1.3-4.2,2.7-5.9,4.5
		c-0.4,1-1,0-1.4,0.1C73.2,233.5,73.1,233.3,73,233.2z"/>
	<path class="st0" d="M268.9,366.2c2.7-2.7,5.3-5.6,9.1-6.8C275.4,362.4,272.8,365.1,268.9,366.2z"/>
	<path class="st9" d="M66.3,439.8c0.3-0.1,0.6-0.1,0.9-0.2c0,1.4,0,2.8,0.2,4.1c0.2,1.5-0.6,3.4,1.7,3.9c0,0.4,0.1,0.9,0.1,1.3
		c-1.8,0.1-3-0.3-2.8-2.5C66.6,444.2,66.4,442,66.3,439.8z"/>
	<path class="st4" d="M198.7,374.6c-0.8-2.1,1.5-2.5,2.1-3.9c0.4-0.3,0.9-0.6,1.3-0.8c0.2,0.1,0.3,0.3,0.5,0.4
		C201.6,372,200.4,373.5,198.7,374.6z"/>
	<path class="st7" d="M51.5,359.9c3.2-0.7,6.5-0.8,9.7,0C58,360.4,54.8,360.4,51.5,359.9z"/>
	<path class="st7" d="M261.5,229c-0.7-1.1-1.4-2.2-2.2-3.3c1.8,0.4,2.9,1.7,3.8,3.1c-0.4,0.1-0.7,0.1-1.1,0.2
		C261.9,229,261.7,229,261.5,229z"/>
	<path class="st7" d="M83,222.9c0.5,0.2,1,0.4,1.5,0.7c-0.1,0.8,0,1.4,0.8,1.8c-0.8,0.8-1.8,1.3-2.9,1.6c-0.2-0.2-0.3-0.3-0.5-0.5
		C83.2,225.5,83.7,224.4,83,222.9z"/>
	<path class="st9" d="M262.1,229c0.4-0.1,0.7-0.1,1.1-0.2c0,0,0,0,0,0c-0.2,1.6-0.7,3.2,0.6,4.6c0.2,0.1,0.2,0.3,0.2,0.5
		c-0.3,0.3-0.5,0.7-0.8,1c-0.3-0.5-0.8-0.6-1.3-0.5c-0.2-0.1-0.3-0.3-0.4-0.4C261.9,232.5,262.6,230.8,262.1,229z"/>
	<path class="st7" d="M71.9,234c-0.2,1.9-1.3,2.7-3.1,2.5C69.6,235.4,70.6,234.6,71.9,234z"/>
	<path class="st7" d="M263.8,233.5c-1.3-1.4-0.8-3-0.6-4.6C264,230.3,263.7,231.9,263.8,233.5z"/>
	<path class="st8" d="M248.9,217.3c0-0.6-0.1-1.2-0.1-1.7c0,0,0,0,0,0c0.5,0,0.9-0.1,1.4-0.1c0.1,0.1,0.3,0.3,0.4,0.4
		C250.2,216.5,249.7,217.1,248.9,217.3z"/>
	<path class="st7" d="M277.9,359.5c0-1,0.5-1.5,1.5-1.5C279.2,358.7,278.7,359.2,277.9,359.5z"/>
	<path class="st8" d="M123.6,20.1c0.1,0.7,0,1.4-0.6,1.9C123.2,21.4,123.4,20.7,123.6,20.1z"/>
	<path class="st0" d="M279.4,358c0-1,0.5-1.5,1.5-1.5C280.7,357.2,280.2,357.7,279.4,358z"/>
	<path class="st7" d="M185.4,395.9c-0.3,0.5-0.6,0.9-0.8,1.4c-0.1-0.1-0.3-0.3-0.5-0.4c0.3-0.5,0.6-1,0.8-1.4
		C185.1,395.6,185.2,395.7,185.4,395.9z"/>
	<path class="st7" d="M266,367.9c0.2-0.9,0.9-0.9,1.6-0.8C267.3,367.6,266.9,368.3,266,367.9z"/>
	<path class="st8" d="M186.5,38.7c-0.3,0.4-0.5,0.3-0.7-0.1C186,38.7,186.2,38.7,186.5,38.7z"/>
	<path class="st8" d="M69.5,155.3c-0.3,0.3-0.6,0.6-0.9,0.9C68.6,155.7,68.9,155.4,69.5,155.3z"/>
	<path class="st8" d="M70.2,154.6c-0.3,0.3-0.6,0.6-0.9,0.9C69.4,154.9,69.7,154.6,70.2,154.6z"/>
	<path class="st8" d="M70.9,153.8c-0.3,0.3-0.6,0.7-0.8,1C70.4,154.4,70.6,154.1,70.9,153.8z"/>
	<path class="st7" d="M72.5,234.4c-0.2-0.2-0.3-0.4-0.4-0.6c0.3-0.2,0.5-0.4,0.8-0.6c0.1,0.1,0.2,0.3,0.3,0.4
		C73,233.9,72.8,234.1,72.5,234.4z"/>
	<path class="st7" d="M281.1,286c-0.8-0.2-0.5-0.5-0.1-0.9c0.1,0.2,0.2,0.4,0.2,0.6C281.2,285.8,281.1,285.9,281.1,286z"/>
	<path class="st4" d="M259.9,237.1c0.3,1.8,1.5,3.1,2.6,4.4c2,2.3,1.2,3.4-1.4,4.1c-5.2,1.6-10.5,2.9-15.3,5.7c-1,0.5-2,1-2.9,1.6
		c-5,3.3-5.6,5.4-3.3,10.9c0.8,1.9,2.2,3.6,2.4,5.8c-2.5-0.1-5-0.3-7.5-0.2c-6.2,0.3-11.8,1.8-14.9,8.1c-0.4,0.9-1,1.7-2.2,1.8
		c-0.1-1.6,0.7-2.9,1.1-4.3c2-7.2,5.7-13.7,9.9-19.8l0,0c2.2-0.8,4-2,4.5-4.5l0,0c0.9,0.2,1.7-0.1,2.4-0.6
		C242.7,244.1,251.2,240.5,259.9,237.1z"/>
	<path class="st10" d="M217.5,279.4c1.2-0.1,1.8-0.9,2.2-1.8c3-6.3,8.7-7.7,14.9-8.1c2.5-0.1,5,0.1,7.5,0.2c0.9,0.3,1.9,0.6,2.8,0.9
		c3.7,1.4,4.1,3.1,1.7,6.4c-2.5,0.6-5.1,1.3-7.7,1.9c6.1,2.8,6.3,4.5,0.8,8.3c-1.2,0.9-1.7,2-2.3,3.3c-1.8-0.5-3.5-1-5.4-1.3
		c-3.5-0.6-6.6-2.9-10.3-2.3c-2.2-0.7-4.3-1.5-6.5-2.2c-1.1-0.5-2.2-1.1-3.3-1.6c1.3-0.8,2.6-1.6,3.8-2.4
		C216.5,280.5,217,280,217.5,279.4z"/>
	<path class="st4" d="M237.3,290.4c0.5-1.2,1-2.4,2.3-3.3c5.5-3.8,5.3-5.5-0.8-8.3c2.6-0.6,5.2-1.3,7.7-1.9c3.1,5,6.3,10,9.4,15
		c0.7,1.1,1.3,2.4,1.2,3.8C250.6,293.6,244,291.9,237.3,290.4z"/>
	<path class="st9" d="M237.3,290.4c6.6,1.5,13.2,3.2,19.6,5.4c6.6,3.6,13.1,7.2,18.8,12.1c2.5,2.2,4.9,4.6,6.3,7.7
		c-0.1,0.2-0.3,0.3-0.4,0.5c-11.4-13.4-26.2-20.7-43.3-24c-5.7-1.1-11.5-2.5-16.7-5.3c3.7-0.6,6.8,1.7,10.3,2.3
		C233.8,289.4,235.6,289.9,237.3,290.4z"/>
	<path class="st9" d="M211.9,283c1.1,0.5,2.2,1.1,3.3,1.6c-2.9,1.1-5.6-0.4-8.2-1.2c-16.3-4.4-32.8-7.4-49.3-10.3
		c-1.4-0.3-3-0.2-4.2-1.3c0,0,0.1-0.2,0.1-0.2c0.5,0,1-0.1,1.5-0.1c0.4,0,0.8,0,1.3,0c0.6,0,1.2,0,1.7,0c7.2,1,14.2,3.5,21.6,3.9
		c6.4,1.8,12.8,3.2,19.3,3.9c2,1.6,4.5,1.9,7,2.1C207.9,282,209.9,282.5,211.9,283z"/>
	<path class="st9" d="M189.5,360.2c-9-7.1-18.6-13.4-27.3-21c-2.3-2-3.8-5.1-7.3-5.4c0-1-0.3-1.8-0.8-2.7c0.1-0.1,0.3-0.3,0.4-0.4
		c3.6,1.7,6,4.7,8.8,7.3c9,8.1,19.1,14.6,28.5,22.1c-0.1,0.1-0.2,0.2-0.3,0.3C190.9,360.3,190.2,360.2,189.5,360.2z"/>
	<path class="st9" d="M259.9,237.1c-8.7,3.3-17.2,7-24.5,13c-0.7,0.6-1.5,0.9-2.4,0.6c2.3-3.6,6.2-5.1,9.5-7.3
		c5.9-3.9,13-5.5,18.9-9.3c0.1,0.1,0.3,0.3,0.4,0.4C261.2,235.4,260.5,236.3,259.9,237.1z"/>
	<path class="st2" d="M153.5,271.8c-7.8-0.9-15.5-1.7-23.3-2.6c-1.3-0.1-2.5-0.6-3.1,1.1c-0.2,0-0.5,0-0.7,0c0-0.7,0-1.5,0.1-2.2
		c8.4-0.1,16.6,1.7,24.9,2.8c0.5,0,1,0,1.5,0c0.2,0.1,0.4,0.2,0.6,0.2c0.1,0.2,0.1,0.4,0.2,0.6L153.5,271.8z"/>
	<path class="st9" d="M282,315.6c4.5,4.3,6.2,9.8,6.9,15.8c-1.5-5.5-4.6-10.3-7.3-15.3C281.8,316,281.9,315.8,282,315.6z"/>
	<path class="st9" d="M126.4,270.3c0.2,0,0.5,0,0.7,0c-0.8,6.5-2.9,12.4-7.1,17.5c-0.2-0.1-0.3-0.2-0.4-0.4
		C122.8,282.1,124.8,276.2,126.4,270.3z"/>
	<path class="st9" d="M141.8,322.9c0.9-0.2,1.6-0.7,2-1.6c3.9,1.7,6.6,4.8,9.3,8c-0.2,0.2-0.3,0.4-0.5,0.5c-1.8,0-2-2.2-3.5-2.6
		c-0.2-0.8-0.8-1.1-1.5-1.3c-0.6-1-1.1-2-2.4-2.2C144.2,322.8,142.4,325.2,141.8,322.9z"/>
	<path class="st0" d="M203.8,367.7c-0.3,0.7-0.9,0.8-1.6,0.8c-3.5-2.3-6.6-5.2-10.5-6.8c0,0,0,0,0,0c-0.1-0.4-0.1-0.9-0.2-1.3
		c0.1-0.1,0.2-0.2,0.3-0.3C196.3,362,199.7,365.5,203.8,367.7z"/>
	<path class="st9" d="M116.9,296.5c2.4,1.5,4.5,3.4,6.2,5.7c-0.2,0.2-0.3,0.3-0.5,0.5c-2.4-1.8-5.5-2.9-6.6-6.2
		C116.3,296.5,116.6,296.5,116.9,296.5z"/>
	<path class="st9" d="M143.8,321.3c-1.6-0.1-2.5-1.5-3.7-2.3c-1.3-1.4-2.6-2.9-3.9-4.3c0.1-0.1,0.3-0.3,0.5-0.4
		C139.5,316,142.4,317.9,143.8,321.3z"/>
	<path class="st9" d="M289.3,342.2c0,1-0.6,1.4-1.5,1.6c0.3-3.1,0.6-6.3,1-10.1C290.9,337,289.2,339.6,289.3,342.2z"/>
	<path class="st9" d="M129.1,307.4c3.1,1.6,5.4,4,7.5,6.8c-0.2,0.1-0.3,0.3-0.4,0.4c-3.1-1.5-5.1-4.4-7.5-6.7
		C128.8,307.7,129,307.6,129.1,307.4z"/>
	<path class="st2" d="M116.9,296.5c-0.3,0-0.6,0-0.9,0c0.7-3.8-1.3-4.9-4.7-4.5c1.6-2,3.6-1.4,5.5-0.7c0.3,0,0.7,0.1,1,0.1
		C116.9,292.9,116.4,294.6,116.9,296.5z"/>
	<path class="st9" d="M123.1,302.1c2.5,1.2,4.4,3.1,6,5.3c-0.2,0.2-0.3,0.3-0.5,0.5c-2.5-1.2-4.4-3-6-5.3
		C122.8,302.4,122.9,302.3,123.1,302.1z"/>
	<path class="st9" d="M117.8,291.3c-0.3,0-0.7-0.1-1-0.1c0.9-1.3,1.8-2.6,2.8-3.8c0.1,0.1,0.3,0.2,0.4,0.4
		C119.7,289.2,119.3,290.6,117.8,291.3z"/>
	<path class="st9" d="M153,329.2c0.5,0.5,1,1,1.5,1.5c-0.1,0.1-0.3,0.3-0.4,0.4c-0.4-0.1-0.9-0.2-1.3-0.3c-0.1-0.4-0.2-0.8-0.3-1.2
		C152.7,329.6,152.9,329.4,153,329.2z"/>
	<path class="st3" d="M69.1,447.6c-2.3-0.5-1.6-2.5-1.7-3.9c-0.2-1.4-0.1-2.7-0.2-4.1c-1.2-4.1-0.5-8.4-0.6-12.6
		c-0.5-16-1.1-32-1.6-48c0-5.6,0-11.1-0.1-16.7c-0.1-2.3,0.8-3.2,3-2.8c0.1,11,0.1,21.9,0.3,32.9c0.3,16.7,0.8,33.3,1.2,50
		C69.3,444.2,69.2,445.9,69.1,447.6z"/>
	<path class="st2" d="M142.8,373.9c0.6,9,2.9,17.7,4.3,26.5c0.2,1.1,0.3,2.2,0.5,3.3c0,0.8,0,1.6,0,2.3c-2.3-4.8-2.3-10.1-3.3-15.1
		c-3-14.6-4.6-29.4-6.3-44.2c-0.1-0.7,0-1.5,0.1-2.2c0.3,0,0.7,0,1,0c0.9,9.6,1.9,19.2,3.6,28.7
		C142.5,373.5,142.6,373.7,142.8,373.9z"/>
	<path class="st2" d="M89.8,350.6c0.2-0.3,0.3-0.7,0.6-0.9c15.3-7.8,30.6-15.5,45.9-23.2c0,0.2,0,0.5,0,0.7
		c-5.8,3.2-11.6,6.6-17.5,9.7c-8.3,4.4-16.8,8.6-25.2,12.8c-0.8,0.4-1.6,0.6-2.4,0.9C90.7,350.6,90.2,350.6,89.8,350.6z"/>
	<path class="st10" d="M89.8,350.6c0.5,0,0.9,0,1.4,0c-0.8,4.7-3.2,9-2.9,14c0.1,1.4-1,1.5-2.1,1.3c-1.4-0.3-2.3-0.7-2.1-2.4
		c0.5-3.1,0.8-6.2,0.4-9.3c0.4-1,1.2-1.4,2.2-1.6C88.4,352.8,88.5,350.8,89.8,350.6L89.8,350.6z"/>
	<path class="st11" d="M136.2,327.2c0-0.2,0-0.5,0-0.7c0.3-0.3,0.5-0.5,0.8-0.8c2.8,0.7,0.7,3.1,1.6,4.5c0,1.5,0,3.1,0,4.6
		c0,3-0.4,6,0.6,9c-0.1,0.3-0.2,0.5-0.3,0.8c-0.3,0-0.7,0-1,0c0.5-5.2-1.6-10.4-0.3-15.6C137.7,328.1,137,327.5,136.2,327.2z"/>
	<path class="st9" d="M147.5,406c0-0.8,0-1.6,0-2.3c1.1,2.9,1.8,6,2.1,9.1c-0.4-0.1-0.8-0.1-1.2-0.2
		C148.1,410.4,147.8,408.2,147.5,406z"/>
	<path class="st4" d="M122.6,302.6c1.6,2.2,3.5,4.1,6,5.3c2.4,2.4,4.4,5.2,7.5,6.7c1.3,1.4,2.6,2.9,3.9,4.3
		c-7.8,4.3-14.4,2.3-21.9-2c-13.7-7.8-28.8-11-44.6-9.9c-11.4,0.8-22.2,4-32.6,8.9c-3.8,1.8-7.7,3.6-11.6,5.2
		c-1.6,0.7-3.3,1.5-4.8-0.3c-1.4-1.7-1-3.5-0.3-5.3c1.9-4.5,4.9-8.4,7.9-12.2c7.4-9.2,15.5-17.9,23.9-26.3c1.7-1.7,4-2.6,5.2-4.8
		c2,2.9,5.5,5,5.2,9.2c0,0,0-0.1,0-0.1c-0.8-0.2-1.3,0.1-1.5,0.9c-1.9,2.4-4,4.5-6.8,5.9c-1,0-1.5,0.5-1.5,1.5l0.1,0
		c-0.5,0-0.8,0.3-0.8,0.8l0,0c-0.5,0-0.8,0.2-0.8,0.8l0,0c-1.6-0.3-2.6,0.4-3.5,2.4c3.5-0.5,6.6-0.6,9.5-1.6
		c1.2-0.1,2.4-0.1,3.6-0.2c1,1.4-1.7,1.7-1,3c11.5,0,22.9-0.1,34.4,0c4.6,0,8.9-0.7,12.9-3c3.4-0.4,5.4,0.7,4.7,4.5
		C117.1,299.7,120.2,300.8,122.6,302.6z"/>
	<path class="st9" d="M66.6,281.6c0.3-4.2-3.3-6.3-5.2-9.2c-4.6-5.7-10.4-9.7-17.2-12.3c0-0.3,0.1-0.6,0.1-0.9
		c0.4-0.1,0.8-0.1,1.2-0.2c5.9,2.7,11.4,6,15.9,10.9c0.6,0.6,1.2,1.3,2.1,1.4c1.2,3.6,4.4,6,6.1,9.4c0,0.7,0.1,1.4,0.1,2
		C68.8,282,68,280.9,66.6,281.6z"/>
	<path class="st3" d="M138.6,330.2c-0.8-1.4,1.3-3.8-1.6-4.5c0.9-2,3.4-1.5,4.8-2.8c0.6,2.3,2.4-0.1,3.3,0.8
		C144.8,327.7,140.5,327.8,138.6,330.2z"/>
	<path class="st2" d="M89.8,350.5c-1.3,0.3-1.4,2.3-3.1,2c0-0.4,0-0.8,0-1.2C87.7,350.6,88.6,350.2,89.8,350.5z"/>
	<path class="st4" d="M184.9,395.4c-0.3,0.5-0.6,1-0.8,1.4c-0.8,1.3-1.2,2.9-2.5,3.9c1.9,1.5,4.3-0.3,5.8,1.5
		c-8.7,0.1-8.6,0.1-6.7-8.2c0.7-3,1-6.1,1.4-9.2c0.3-2-0.3-3.9-1.6-5.6c-6.3-8.3-12.7-16.5-19.8-24.2c-2.3-2.5-3.7-6.1-7.4-7
		c0.1-2.7,0.3-5.5,1-8.1c5.5,4.3,10.6,8.9,15.6,13.8c8.3,8,16.7,15.9,25,23.9c-1.5,4.9-5.3,8.4-7.6,12.9
		C186.5,392.1,185.4,393.6,184.9,395.4z"/>
	<path class="st10" d="M154.2,340c-0.8,2.7-0.9,5.4-1,8.1c-0.1,8.4-4.8,15.7-6,23.9c-0.4,3.1-2.5,2.4-4.5,1.9
		c-0.1-0.2-0.2-0.4-0.3-0.7c2.8-6.4,0.7-13.2,2-19.7c0.6-3.1,0.6-6.4,0.9-9.7c1-2.7,0.6-5.5,1-8.2c0.4-3.3,0.8-6.5,1.2-9.8
		c0.7,0.2,1.3,0.5,1.5,1.3c-1.1,10.8-2.3,21.5-3.4,32.3c-0.1,0.8-0.6,1.8,0.5,2.2c1.1,0.4,2,0.1,2.5-1c0.5-1,0.9-2.1,1.1-3.2
		c1.5-8.8,3-17.7,3.1-26.7c0.4,0.1,0.9,0.2,1.3,0.3c0.5,0.8,0.9,1.7,0.8,2.7C154,335.8,154.2,337.9,154.2,340z M145.9,367.7
		c-0.8,1.3-1.5,2.6-1,4.8c1.6-1.8,1-3.3,1.2-4.7c0.9-1,1-2.1,0.3-3.3C145.7,365.6,146.1,366.7,145.9,367.7z"/>
	<path class="st4" d="M188,402.9c1.9,1,1.1,2.1,0.1,3.2C187.2,405,188.4,404,188,402.9z"/>
	<path class="st4" d="M261.4,234.2c-5.9,3.9-13,5.4-18.9,9.3c-3.3,2.2-7.3,3.7-9.5,7.3c0,0,0,0,0,0c-2.2,0.8-3.9,2.1-4.5,4.5l0,0
		c-1.6-0.2-2.3,1-2.9,1.9c-4.9,7.1-8.3,14.9-9.9,23.4c-1.3,0.8-2.6,1.6-3.8,2.4c-2-0.5-3.9-1-5.9-1.5c2.4-10.8,7.5-20.1,15.7-27.7
		c11.7-10.9,25.5-18.3,39.9-24.7c0.2,0,0.4,0,0.6,0C262.6,230.8,261.9,232.5,261.4,234.2z"/>
	<path class="st5" d="M199,279.3c-6.6-0.7-13-2.1-19.3-3.9c1.1-2.7,3.8-3.8,6-5.3c5.8-4.2,11.8-8.2,17.7-12.3
		c0.8-0.5,1.7-1.3,2.7-0.7c1,0.5,0.8,1.6,0.6,2.3C205.1,266.4,202.8,273.1,199,279.3z"/>
	<path class="st5" d="M163.8,252c2.6-6,7.3-8.1,13.6-8.1c2.9,0,5.9-0.7,8.8-1.2c1.5-0.3,2.7-0.2,3.6,1.2c1.9,2.9,4.2,5.5,5.2,8.9
		c-2.4-0.2-4.2-1.9-6.4-2.7c-4.4-1.5-8.8-0.1-13.1,0.3C171.5,250.7,167.7,251.4,163.8,252z"/>
	<path class="st10" d="M152.8,270.9c-0.5,0-1,0-1.5,0c0-2.1,0-4.2-0.1-6.3c-0.2-7.1,0.5-14.3-0.5-21.4c0.1-0.2,0-0.4-0.1-0.6
		c0.1-1.6,0.2-3.2-0.3-4.8c0-0.7,0-1.4,0-2c0.1-2.1,0-4.7,2.8-4.9c2.8-0.3,4.1,1.8,4.4,4.5c0,0.2,0.2,0.4,0.3,0.7
		c0,0.8,0.1,1.6,0.1,2.3c0,0.5,0,0.9,0,1.4c0,1,0.1,2,0.1,3c0,0.7,0,1.3,0,2c0,5.5,0.1,10.9,0.1,16.4c0,3.5,0,7,0,10.4
		c-0.6,0-1.2,0-1.7,0c0.3-11.7,0-23.4-0.6-35.1c-0.1-1.6-0.2-3.7-2.3-3.5c-2.2,0.2-1.4,2.3-1.3,3.6
		C153.3,248,152.8,259.4,152.8,270.9z"/>
	<path class="st1" d="M158.1,261.1c0-5.5-0.1-10.9-0.1-16.4c1.2,0,2.4,0,3.7,0c4.1,0,4.3,0.3,2.1,4c-0.7,1.2-1.6,2.2-1.2,3.7
		c0,0,0-0.1,0-0.1c-1.6,0.5-1.6,1.8-1.6,3.2C160.4,257.6,159.3,259.4,158.1,261.1z"/>
	<path class="st2" d="M161,255.5c-0.1-1.4-0.1-2.7,1.6-3.2C162.8,253.7,161.9,254.6,161,255.5z"/>
	<path class="st5" d="M195.1,252.8c0.6,0.1,1,0.4,1.1,1.1C195.6,253.7,195,253.6,195.1,252.8z"/>
	<path class="st12" d="M209.8,44.6c25.5,10.2,40.6,28.6,43.6,56.1c2.5,22.5-1.4,44.2-11.3,64.7c-3.1,6.3-7.5,11.1-13.9,14
		c-7.9,3.7-15.8,7.3-24.4,9.1c-1.1-0.5-2.3-1-3.4-1.5c-0.2-0.5-0.5-0.9-1.1-0.8c0,0,0.1,0,0.1,0c-0.2-1.2-1.4-1.7-2.1-2.5
		c-0.9-0.9-0.3-1.1,0.6-1.3c1.2,0.7,2.1,1.9,3.7,1.7c-0.5-0.9-1.6-1.3-2-2.1c-0.6-1.1,0.5-1.1,1.2-1c1.1,0.6,2.2,1.2,3.3,1.8
		c0.3,0.3,0.7,0.5,1,0.8c0.4-0.7,0.2-1.1-0.5-1.3c-0.3-1-2.9-3,0.7-2.4c2.3,0.4,1.3-1.6,2.3-2c1.8,0.1,2.8,1.8,4.4,2.3
		c0.4,0.6,0.9,1.1,1.7,0.6c-0.3,0.4-0.1,0.5,0.4,0.5c-0.1-0.1-0.3-0.3-0.4-0.4c-0.3-0.4-0.7-0.8-1-1.2c-0.2-1.2-3.8-2-0.4-3.5
		c1.9,1,4.1-2.2,5.4,0.3c2.3-1.2-3.4-2.5,0.3-3.4c1.6-0.4,0.9-4.1,3.5-2.2c0.3,0.2,0.6,0.3,0.9,0.5c0.3,0.3,0.5,0.8,1,0.2
		c0,0-0.4-0.4-0.6-0.6c-0.2-0.3-0.5-0.5-0.7-0.8c-0.1-0.4-0.6-1.1-0.4-1.3c1.5-2.1,3.7-3.6,4.7-6.1c0.3-0.7,1.3,0.3,2,0.4
		c0.3,0.3,0.6,0.8,1,0.2c0-0.1-0.4-0.4-0.6-0.6c-1.8-2.8-0.4-6.2,1-7.3c2.9-2.3-1.8-5.4,1.5-6.9c-2.3-1-2-3.4-2.1-5.2
		c-0.2-2.9-2.4-5.6-3.7-6.7c-6.1-5.1-9.2-12.9-16-17.3c-1.3-0.8-2.9-1.7-2.3-3.9c0.7,0.3,1.4,0.6,2,0.9c1.3,1.3,2.7,2.4,4.4,3.1
		c0.3,0.6,0.7,0.8,1.4,0.8c0,0.4,0.3,0.7,0.6,0.4c0.3-0.3-0.1-0.5-0.4-0.6c-0.4-0.4-0.8-0.8-1.2-1.2c-1.4-1.1-2.8-2.2-4.1-3.3
		c-1.3-1.3-2.8-2.5-4-3.8c-0.5-0.5-0.8-1.5-0.2-2c0.2-0.2,1.3,0.4,1.9,0.6c1.3,1.3,2.7,2.4,4.5,3.1c0.4,0.3,0.8,0.6,1.3,1
		c0.3,0.3,0.6,0.8,1,0.2c0,0-0.4-0.4-0.6-0.6c-0.4-0.4-0.8-0.8-1.2-1.1c-1.4-1.1-2.8-2.2-4.2-3.3c-0.7-0.7-1.5-1.3-2.2-2
		c-2.2-1.7-2.2-3.1,0.6-4.1c-0.7-1.4-3.2-1.7-2.6-3.8c0.5-1.8,1.9,1,2.6-0.4c-1.9-2.2-1.9-2.2-0.6-4.5c0.4-0.8-0.1-1.2-0.6-1.5
		c-1.1-0.8-1.2-2.1-0.5-3c0.9-1.1,1.6,1,2.6,0.8c0.2-1.5-1.1-1.9-1.4-2.7c-1.1-3.6,1.8-0.2,2.3-1.4c-0.7-1.8-3.7-4.4,1.2-5
		c-0.7-4.6,3.8-6.1,5.4-9.3c0.3-0.2,0.6-0.5,0.8-0.7l0,0c0.7-0.3,1.4-0.7,2.1-1c0.3,1.7-0.7,3.1-1.1,4.7c-0.1,0.5-0.2,1,0.4,1.2
		c0.3,0.1,1-0.1,1-0.2c-0.1-1.9,2.7-4-0.3-5.7c1-0.8,2-1.7,3.4-2.9c-2.6,0.3-4.2,1.3-5.7,2.5c-16.4,11-16.8,26.9-12.9,44.9
		c-2-2.5-3.5-0.1-4.3-0.8c-3.1-2.5-7-1.6-9.8-1.3c-8.3,0.9-16.6,2.7-24.6,5.6c-9,3.3-17.3,8.3-27,9.8c-4-1.5-6.2-5.3-9.7-7.5
		c-4.4-3.8-5.4-9.8-9-14.1c-0.6-0.7-3.7-4.4-4.5-5c-0.7-0.4-1.1-1-0.7-1.9c1-0.4,1.9-0.9,2.3-2.1c-1.4-0.2-2.3,0.6-3.1,1.4
		c-0.5-0.1-1.7,0.2-1.4-0.4c0.9-2.1,0.5-2.3-1.3-1.3c-0.7,0.4-1.6,0.4-1.9-0.4c-0.4-1,0.7-1.2,1.2-1.5c5.2-3.5,7.5-8.2,7-14.6
		c-0.4-6.9,1.3-13.5,4.6-19.9c1.2,14.7,3.2,29.2,9.5,42.9c1-5,1.2-10.2,2.6-15.1c2.6-9.6,5.8-18.8,13.4-25.8c1.3-1.2,2.5-2.8,4.6-3
		c0,1.8-1.3,2.9-2.2,4.2c-2.3,3.5-4.4,7.1-5.9,11.4c3.6,0,6.3-0.5,7.5-4.1c0.6-1.7,1.9-3.2,2.7-4.9c1.7-3.9,4.9-6.8,6.3-10.9
		c4.7-2.9,9.9-2,15-2.3c0.1,1-0.6,1.6-1,2.3c-3.1,4.5-6,9.1-7.9,14.3c-0.9,2.6-0.9,3.9,2.5,3.7c4.2-0.2,8.5,0,12.7,0
		c-0.4,1.3-0.8,2.5-1.2,3.8c-4.4,1.4-8.9,0.5-13.3,0.6c-2.4,0-3.6,0.7-4.7,3.1c-2.9,7-4.4,14.5-6.4,21.8c-0.3,1.2-1.6,3-0.5,3.8
		c1.4,1.1,2.5-0.9,3.8-1.4c0.8-0.4,1.6-0.7,2.4-1c8.5-3.1,17.2-4.7,26.2-5.2c1.4-0.1,2.5-0.3,2.9-1.7c0.6-2.4,1.2-4.8,1.8-7.2
		c4.1-5.4,8.6-10.6,11.6-16.9c2.1-4.5,3.9-9.2,5.2-14c0.2-0.3,0.3-0.5,0.5-0.8c0,0,0,0,0,0c2.2-0.4,5,0.4,6.1-2.6
		c2.9,1.9,5.7,3.9,8.6,5.8c-3.6-5.1-8-9.2-13.2-12.3C209.7,48.4,209.7,46.5,209.8,44.6z M237.5,74.5c-0.3-0.2-0.5-0.5-0.8-0.7
		c-0.2-0.3,0.4-1-0.5-0.8c0.2,0.3,0.4,0.5,0.6,0.8C237,74,237.3,74.2,237.5,74.5c0.3,0.2,0.5,0.5,0.8,0.7c0,0.9,0.5,1.5,1.5,1.5
		c0,0.6,0.1,1.2,0.7,1.5c1.3,3,3.2,5.6,5.5,7.8c-1.6-2.8-2.1-6.4-5.5-7.8c0-0.6-0.1-1.2-0.8-1.5c-0.1-1-0.5-1.5-1.5-1.5
		C238,75,237.7,74.8,237.5,74.5z M130,110.5c0-0.7,0.3-1.8-0.4-1.8c-1.3-0.1-0.7,1.1-0.8,1.8c0.3,3.1,0.5,6.2,0.8,9.2
		c0.1,0,0.3,0,0.4-0.1C130,116.6,130,113.6,130,110.5z M224,106.7c-1.5-0.1-2.6,0.5-2.1,2.1c0.6,1.8,0.1,3.9,0.8,5.4
		c1.1,2.2-0.8,5.1,1.7,6.8c0.3,2.1-0.5,4.3,0.4,6.7c2.3-7.9,1.9-21.3-1-34.4c-1.2-4-2.5-8.1-3.6-12.1c-0.4-1.5-1.4-1.7-2.6-1.4
		c-1.7,0.4-0.7,1.5-0.5,2.4c1.2,6.3,2.7,12.6,3.6,19c0.4,2.5,1.3,2.4,3.1,1.9C223.9,104.3,223.9,105.5,224,106.7z M135.9,117
		c1.3-12,3.4-23.5,8.6-34.2c0.5-1.1,1.9-2.3,1-3.3c-1-1.1-2.8-0.5-4.3-0.4c-1.3,0.1-1.6,1.5-2.1,2.4c-5.4,11-4.7,22.7-4.1,34.5
		C135,116.2,135.3,116.4,135.9,117z M229.3,79.6c0,0.5,0,1,0.2,1.4c3.3,9.4,6.2,18.9,7.6,28.7c0.6,4.1,2.7,7.1,5.9,10.9
		C241.2,105.3,236.5,92.1,229.3,79.6z M238.7,120c1.1,12.9,0.5,25.5-1.9,38.2c0.7-0.6,1.1-1.2,1.3-1.8c3.1-8.8,4.4-18,5.3-27.3
		C243.9,124.9,240.9,122.7,238.7,120z M250.1,93.9c-0.1-0.1-0.1-0.2-0.2-0.2c-0.1,0.1-0.2,0.2-0.2,0.2c0.1,0.1,0.2,0.2,0.3,0.3
		C250,94.1,250,94,250.1,93.9z M228.3,76c-0.1-0.1-0.1-0.2-0.2-0.2c-0.1,0.1-0.2,0.2-0.2,0.2c0.1,0.1,0.2,0.2,0.3,0.3
		C228.3,76.1,228.3,76.1,228.3,76z M116.6,98.1c-0.1-0.1-0.2-0.2-0.2-0.2c-0.1,0-0.2,0.1-0.2,0.2c0.1,0.1,0.2,0.1,0.3,0.2
		C116.5,98.2,116.5,98.1,116.6,98.1z"/>
	<path class="st6" d="M140,20.4c1.4-0.9,2.6-1.1,4.1,0c8.2,5.7,17.5,8.8,27.1,11.3c4.6,1.2,8.9,3.2,12.1,6.9
		c4.2,10.2,2.9,12.3-8.1,13.6c-6.1,0.8-12.4,0.1-18.4,2.8c-10.1,4.5-17.3,11.5-22,21.4c-2.8,6-4.7,12.2-6.2,18.7
		c-1.2-5.2-6.3-10.1-0.7-15.6c-1.5-0.7-2.2,1-3.4,0.7c-0.4-1-0.4-1.9,0.3-2.8c0.8-1,1.4-1.7-0.5-2.3c-1.2-0.4-0.7-1.7-0.1-2.5
		c0.7-1,1.5-1.9,2.5-3.2c-1.5-0.4-1.9,0.9-2.7,0.9c-0.8-2.2-0.8-2.2,2.9-9c-1.5-0.5-2.1,1-3.2,1.5c-1.4,0.6-0.9-0.6-1.3-1.1
		c1.2-3,5.1-3.9,6.1-7.5c-2.8,0.8-4.1,3.3-6.6,3.8c-0.4-5.3-0.5-10.6-0.6-15.9c-0.2-7.9,1.6-15.5,4.1-23c0.4-0.6,0.8-1.3,1.2-1.9
		c1.4-2.1,2.9-4.5,5.7-4.2c3.4,0.4,6,2.7,8.2,5.3c0.1,0.2-0.3,0.9-0.5,1.3c-4.1,2.3-7.5,5.7-11.2,8.5c-0.7,0.6-1.4,1.4-0.8,2.2
		c0.8,1.2,1.5,0,2-0.5C133.4,26.7,136.7,23.6,140,20.4z M130.9,39.1c-2.3,1.7-4.5,3.4-6.8,5.1c-0.6,0.5-0.9,1.3-0.2,1.9
		c0.6,0.5,1.1-0.1,1.6-0.5c2-1.9,4.4-3.6,5.9-6.1c0.3-0.2,1.1-0.3,0.7-0.9C131.7,38.4,131.2,38.7,130.9,39.1z M125.1,39.1
		c4.5-2.2,7.6-5.8,10.8-9.4C131.7,32.2,127.8,35,125.1,39.1z M130.3,46.5c-0.2-0.2-0.5-0.4-0.7-0.6c-2,1.5-4,2.9-5.9,4.5
		c-0.6,0.5-1,1.2-0.4,1.9c0.7,0.9,1.4,0.1,1.9-0.3C126.9,50.2,129,48.7,130.3,46.5z"/>
	<path class="st13" d="M105.6,175.7c-3.1-3.3-7.4-4-11.4-4.9c-7.2-1.6-6.9-4.9-4.4-11.1c0.2-0.6,0.6-1.2,1.3-1.1
		c0.4,0.1,1.1,0.6,1,0.9c-0.1,2.5,1.6,2,3.1,2.2c1.6,0.2,3.2,1,4.8,1.4c0.5,0.1,1.3,0.3,1.6-0.4c0.3-0.7-0.2-1.2-0.8-1.5
		c-14.2-7.3-18.7-20.6-21.8-34.8c-2.3-10.5,3.5-21.6,13.4-25.9c3.7-1.6,7.4-2.1,10.7,1.2c2.8,2.5,5.6,5,8.3,7.5
		c2.3,2.2,4.5,4.5,6.8,6.7c0,2.3,1.4,3.8,3,5.2c0,0,0,0,0,0c0.5,1.9,1,3.8,1.6,5.7c0.7,2.1,1.2,5,3.5,5c1.3,0,2-3,2.4-4.8
		c0.9,0,1.9-0.3,2.5,0.8c-1.9,1.2,0.3,2.7-0.4,4c-2.4-1-1.1,1.2-1.3,1.7c-0.4,1.7-0.3,4.3-1.8,4.5c-1.7,0.2-3.6-1.4-4.4-3.4
		c-0.2-0.5-0.4-0.9-0.6-1.4c-3.6-6.9-7.7-13.4-13.3-18.9c-0.7-0.7-1.3-2.3-3.4-1.1c5.9,5.9,10.3,12.7,14.2,19.8
		c1.4,2.6,2.8,5,5.6,6.3c0.7,0.3,1.6,0.6,1.1,1.6c-2.6,4.7-0.8,9.2,0.1,13.8c0.2,0.8,0.5,1.7-0.5,2.3c-2.1,1.3-4.1,2.7-6.1,4.2
		c-1.3,1-4.6,1.4-3.9,2.7c1,1.7,3.1-0.7,4.8-1c0.7,3.1-3.3,4-3.5,7.4c2.2-1.9,4-3.1,6.4-2.6c-0.7,1.8-1.6,3.4-2.9,4.9
		c-1,1.1-2.1,2.4-1.6,4.2l0.1-0.1c-1.1,0.1-1.4,0.6-0.8,1.6c0,0,0.1-0.1,0.1-0.1c-0.9-0.6-1,0.6-1.5,0.8c-0.6-0.2-1.2-0.4-1.8-0.5
		c-1.1-0.1-2.1-1.3-3.1-0.4c-0.8,0.8,0.2,1.8,0.4,2.8c0.4,3.2,2.4,6,2.4,9.4c-1.6-0.1-2.9,0.2-2.1,2.2c0.4,1.2,1,2.4-0.8,3
		c-0.3,0-0.6,0-0.9,0c-2.6-3.5-5.1-7-7.7-10.5c-2.5-3.3-5.2-6.6-8.1-10.3c3.7-0.2,6.5,1,9.4,1.8c0.3,0,0.8,0.2,0.9,0.1
		C106.3,175.9,105.9,175.8,105.6,175.7z M87.5,109.7c-0.2,0.3-0.5,0.5-0.7,0.8c-0.2,0.3-0.5,0.5-0.7,0.8c-0.2,0.3-0.5,0.5-0.7,0.8
		c-0.1,0.1-0.1,0.2-0.2,0.3c0.1-0.1,0.1-0.2,0.2-0.3c0.3-0.2,0.5-0.5,0.8-0.7c0.3-0.2,0.5-0.5,0.8-0.7C87,110.3,87.3,110,87.5,109.7
		c0.1,0,0.2,0,0.3-0.1c0,0,0-0.1,0.1-0.2C87.7,109.6,87.6,109.6,87.5,109.7z M87,122c-1.4-0.8-1.4,0.6-1.6,1.2
		c-4,9.6,0.5,23.9,9.4,29.5c7.9,5,19.7,2.6,23.6-4.7c1.2-1.3,0.4-3.2,1.3-4.6c0.2-2.5-0.2-4.9-0.8-7.3c-2.3-6.8-5.7-13-10.9-18.1
		c-2.4-2.3-5.2-3.8-8.5-4.3c-4-0.6-7.7,0.8-11.1,2.3c-1.7,0.7,0.4,2.9-0.3,4.4C87.8,120.9,87.4,121.5,87,122z M122.5,145
		c0.1,7.1-5.4,9.2-10.9,11.8c1,0.1,1.4,0.3,1.7,0.2c2-0.7,4-1.4,6-2.1c4.6-1.6,5.1-2.6,4-7.4C123,146.6,122.7,145.8,122.5,145z
		 M105.1,170.2c1.9,0.7,3.2-0.3,4.7-0.5c4.9-0.5,4.9-0.5,3.6-5.3C111,166.7,108.2,168.4,105.1,170.2z M88.8,108.7
		c2.8,0.6,4.5,0.1,6.1-0.6c0.9-0.4,1-1,0.5-1.8c-0.5-0.9-1.4-1.1-2.3-0.9c-1.3,0.3-0.8,0.7-0.1,1.4c1.2,1.2-0.4,0.7-0.6,0.8
		C91.6,107.9,90.7,108.1,88.8,108.7z M95.9,107c3,1.3,5.1,2.3,7.3,3.3C101.7,107.6,99.6,106.4,95.9,107z M108.4,157.3
		c0.2,0.1,0.4,0.3,0.6,0.3c0.4,0,1.2,0.2,1-0.4C109.8,156.8,108.9,157,108.4,157.3z M115,173.7c0-0.1,0.1-0.2,0.1-0.3
		c0,0-0.2-0.1-0.2-0.1c0,0.1-0.1,0.2-0.1,0.3C114.7,173.6,114.9,173.7,115,173.7z M104.1,110.1c0.1,0.1,0.2,0.3,0.3,0.4
		c0.1-0.1,0.2-0.2,0.2-0.2c0-0.2-0.1-0.3-0.2-0.5C104.3,109.9,104.2,110,104.1,110.1z"/>
	<path class="st10" d="M179.9,74.5c-4.2,0-8.5-0.2-12.7,0c-3.4,0.2-3.4-1.2-2.5-3.7c1.9-5.2,4.8-9.8,7.9-14.3c0.5-0.7,1.1-1.3,1-2.3
		c2.6-0.5,5.1-1,7.7-1.4c3.5-0.6,5.6-2.5,5.9-6.2c3.9-0.2,7.6,0.8,11.1,2.3C195.1,59.5,188.8,68,179.9,74.5z"/>
	<path class="st0" d="M69.6,158.4c3.1-3,6.2-6.1,9.3-9.1c1-0.9,1.7-2.2,3.3-2.1c4.7,5,5.3,10.5,3.2,17c-1.6,4.8,0,6.7,4.7,8.4
		c1.2,0.4,2,1,2.5,2c3.3,6.5,8.8,11.5,12.8,17.5c-0.1,0.1-0.3,0.2-0.3,0.2c0.1,0.2,0.2,0.3,0.3,0.5c0,0,0,0.1,0,0.1
		c-1.5,3.2-3.1,1.3-4.7,0c0,0,0,0,0,0c-1.6-2.7-4.3-1-6.5-1.5c-0.5-0.4-0.9-1.1-1.7-0.8l0,0c-0.1-2-1.3-3.1-3-3.8l0,0
		c-0.1-1.7-1.4-2.5-2.7-3.3c-0.4-0.9-0.9-1.6-1.7-2.1c-1.5-1.8-2.7-4-5.3-4.5c-2.4-5.9-6.4-10.8-9.9-16c0.1-0.7,0-1.3-0.7-1.8
		C69.6,159,69.6,158.7,69.6,158.4z"/>
	<path class="st10" d="M111.5,195.2c0.3,0,0.6,0,0.9,0c1.3,1.2,2,0.2,2.8-0.7c0.2,0,0.5,0,0.7,0c6.7,4,14,3,21.2,2.9
		c1.1,0,2.1-0.5,2.9-1.4c0.8-0.4,1.6-0.9,2.6-0.5c0.2,0.7,0.7,0.9,1.4,0.9c4.5,0.1,9.1,0.5,13.6-0.2c0.8,0.1,1.6,0.2,2.4,0.3
		c5.7,1.4,11.6,1.2,17.4,1.7c0,0,0.2,0.1,0.2,0.1c0.7,0.4,1.4,0.9,2.2,1.3c-5,1.3-10.2,2-15.4,2.1c-1.6-0.2-3.2-0.4-4.8-0.4
		c-10.7,0-21.4,0-32,0c-2.5-0.1-4.8,0.9-7.3,0.6c-6.6-0.6-13.2-1.7-19.9-1.4c-1.1-2.4,0.3-4.9,3.1-5.1c1.4-0.1,2.9-0.1,4.4-0.2
		C109,195.2,110.2,195.2,111.5,195.2z"/>
	<path class="st12" d="M119.9,54.9c0.7,1.9,0.1,3.6-0.9,5.3c-4.6,7.5-6.7,15.7-6.7,24.4c0,3.2-0.9,5.4-4,6.7c-1.9,0.8-3.7,2-4.8,4.1
		c-0.5,1-1.4,1.1-2.2,0.7c-1-0.4-0.4-1.3-0.2-1.9c0.5-1.5,1-3,1.5-4.6c1.8-0.1,1.7-1.8,1.9-2.8c1.2-5.8,3.8-11.2,5.6-16.8
		c0.5-1.4,1.8-2.6,0.2-4.3c-0.7-0.7,0.2-2.8,1.2-2.6c2.4,0.4,2.5-1.5,3.5-2.5C116.6,58.6,117.5,56.1,119.9,54.9z"/>
	<path class="st10" d="M119.9,54.9c-2.4,1.2-3.3,3.7-5,5.5c-1,1.1-1.1,3-3.5,2.5c-1-0.2-1.9,1.9-1.2,2.6c1.7,1.7,0.3,2.9-0.2,4.3
		c-1.8,5.6-4.4,11-5.6,16.8c-0.2,1-0.1,2.7-1.9,2.8c0.4-8.2,1.5-16.3,4.2-24.1C109,59,114,55,119.3,51.1
		C120.3,52.5,120,53.7,119.9,54.9z"/>
	<path class="st10" d="M158.8,56.5c-1.4,4.1-4.6,7-6.3,10.9c-0.8,1.7-2.1,3.2-2.7,4.9c-1.2,3.7-3.9,4.2-7.5,4.1
		c1.5-4.3,3.6-7.9,5.9-11.4c0.9-1.3,2.2-2.4,2.2-4.2c0,0,0,0.1,0,0.1c0.3-0.3,0.5-0.6,0.8-0.8C153.5,58.5,155.9,57.1,158.8,56.5z"/>
	<path class="st8" d="M131.3,127.6c-0.6-1.1-1.6-0.8-2.5-0.8c0-1.6-0.9-2.1-2.4-1.9l0.1-0.2c-0.5-1.2-0.3-2.1,0.7-2.9
		c3.5,2.2,5.7,6,9.7,7.5c0.3,0.3,0.6,0.6,0.9,0.9c0.8,2.8,3.8,3.6,5.1,6c-0.3,0.3-0.5,0.6-0.8,0.9c-0.9-0.6-1.7-1.2-2.6-1.8
		c-1.3-1.1-2.6-2.2-3.9-3.3C134.5,130.1,133,128.7,131.3,127.6z"/>
	<path class="st13" d="M198.5,49c-3.6-1.6-7.2-2.5-11.1-2.3c-0.1-1.1-0.1-2.2-0.2-3.8c4.2,1.7,8.1,3.3,11.9,4.8
		C198.9,48.2,198.7,48.6,198.5,49z"/>
	<path class="st8" d="M111.5,109.1c-2.8-2.5-5.6-5-8.3-7.5c0.8-0.1,1.4-1.2,2.3-0.5c0.3,0.7,0.5,1.5,1.6,1.2c0,0,0,0,0,0
		c-0.2,0.7,0.1,0.9,0.8,0.8c0,0,0,0,0,0c0.1,1,0.5,1.5,1.5,0.8c0,0,0,0,0,0c-0.5,2.5,2.6,2.6,3.1,4.4
		C112.1,108.5,111.8,108.8,111.5,109.1z"/>
	<path class="st9" d="M122,58c2.5-0.5,3.8-3,6.6-3.8c-1,3.6-4.9,4.5-6.1,7.5C121.3,60.6,121.7,59.3,122,58z"/>
	<path class="st10" d="M112.4,108.2c-0.5-1.8-3.6-1.9-3.1-4.4c3.6,1.5,5.4,4.7,7.2,7.9C115.1,110.5,113.8,109.3,112.4,108.2z"/>
	<path class="st13" d="M120.5,117.7c2.3,1.8,3.7,4.2,4.5,7l-0.1,0.1c-2.3-0.2-1.8-3.2-3.7-3.8c0,0,0,0,0,0
		C121,119.9,120.8,118.8,120.5,117.7z"/>
	<path class="st10" d="M120.5,117.7c0.2,1.1,0.5,2.2,0.7,3.3c-1.6-1.4-3-2.9-3-5.2C119.3,116.1,120,116.9,120.5,117.7z"/>
	<path class="st8" d="M112.3,100c0.9-0.8,1.7-1.6,3.1-1.4c-0.4,1.2-1.3,1.7-2.3,2.1C112.8,100.5,112.5,100.3,112.3,100z"/>
	<path class="st13" d="M125,124.7c0.5,0,1,0,1.5-0.1l-0.1,0.2c0,0.5-0.1,1.1-0.8,1C125.1,125.8,125,125.3,125,124.7L125,124.7z"/>
	<path class="st10" d="M109.3,103.7c-1,0.8-1.4,0.2-1.5-0.8C108.7,102.3,109,102.9,109.3,103.7z"/>
	<path class="st10" d="M107,102.2c-1,0.3-1.3-0.4-1.6-1.2C106,101.5,106.9,101.3,107,102.2z"/>
	<path class="st7" d="M105.6,192.9c-0.1-0.2-0.2-0.3-0.3-0.5c0,0,0.2-0.1,0.3-0.2C105.6,192.5,105.6,192.7,105.6,192.9z"/>
	<path class="st12" d="M151.2,60.1c-0.3,0.3-0.5,0.6-0.8,0.8C150.3,60.3,150.8,60.3,151.2,60.1z"/>
	<path class="st10" d="M107.8,103c-0.6,0.1-1,0-0.8-0.8C107.5,102.2,108.2,102.1,107.8,103z"/>
	<path class="st4" d="M69.5,280.7c-1.7-3.4-4.9-5.7-6.1-9.4c4.9-6.5,11.7-10.9,17.9-15.9c1.6-1.3,3.4-2.5,5.1-3.7
		c1.8-1.2,3.7-1.5,5.5-0.2c-1.2,4.2-2.5,8.3-3.7,12.5c-0.5,0.8-1,1.6-1.5,2.4c-0.2,0.2-0.4,0.5-0.7,0.7l0,0c-3.1,0.6-5,3.1-7.2,4.9
		C75.7,274.9,71.4,276.5,69.5,280.7z"/>
	<path class="st9" d="M94.4,245c-1.6-4.3-3.1-8.6-4.7-12.9c-1.6-4.2-1.6-4.2-5.6-1.9c-2.3,1.3-4.3,3.1-6.9,3.6
		c-0.1-0.2-0.3-0.3-0.4-0.5c1.6-1.1,3.2-2.3,4.8-3.4c1.6-0.9,3.2-1.7,4.9-2.6c1.6-0.9,2.7-0.3,3.3,1.2c2.2,5.5,4.5,10.9,5.2,16.9
		C94.8,245.2,94.6,245.1,94.4,245z"/>
	<path class="st3" d="M88.2,264.1c1.2-4.2,2.5-8.3,3.7-12.5c0.3-0.5,0.5-1.1,0.8-1.6c0,1.3,0,2.7,1.6,3.2c0,0.4,0,0.8,0,1.2
		c-1.7,2-2.2,4.4-3,6.8l0,0c-0.6,0.3-0.7,0.8-0.7,1.4c-0.3,0.3-0.6,0.6-0.9,0.9C89.2,263.8,88.7,263.9,88.2,264.1z"/>
	<path class="st10" d="M94.2,253.3c-1.6-0.6-1.5-1.9-1.6-3.2c0.6-1.7,1.2-3.3,1.7-5c0.2,0,0.4,0.1,0.5,0.3c-0.1,1,0.4,1.6,1.3,1.9
		c0.1,0.4,0.2,0.9,0.3,1.3C95.8,250.1,95,251.7,94.2,253.3z"/>
	<path class="st9" d="M72.5,234.4c0.3-0.3,0.5-0.5,0.8-0.8c0.5-0.1,1.1,0.8,1.4-0.1c0.7,0,1.4-0.1,2.1-0.1c0.1,0.2,0.3,0.3,0.4,0.5
		C75.8,235.1,74.3,236.1,72.5,234.4z"/>
	<path class="st10" d="M191,91.1c-0.6,2.4-1.2,4.8-1.8,7.2c-0.4,1.5-1.5,1.7-2.9,1.7c-9,0.5-17.7,2.1-26.2,5.2
		c-0.8,0.3-1.6,0.6-2.4,1c-1.3,0.6-2.4,2.5-3.8,1.4c-1.1-0.9,0.2-2.6,0.5-3.8c1.9-7.3,3.4-14.7,6.4-21.8c1-2.4,2.2-3.1,4.7-3.1
		c4.4-0.1,9,0.8,13.3-0.6C179.9,86.5,183.8,90.6,191,91.1z"/>
	<path class="st2" d="M209.7,50.4c5.2,3.1,9.7,7.2,13.2,12.3c-2.9-1.9-5.7-3.9-8.6-5.8c-1.7-1.1-3.5-2.3-5.2-3.4
		C209.2,52.4,208.9,51.3,209.7,50.4z"/>
	<path class="st10" d="M209.1,53.4c1.7,1.1,3.5,2.3,5.2,3.4c-1.1,3-3.8,2.3-6.1,2.6C208.5,57.5,208.8,55.4,209.1,53.4z"/>
	<path class="st10" d="M208.2,59.5c-0.2,0.3-0.3,0.5-0.5,0.8C207.6,59.8,207.8,59.6,208.2,59.5z"/>
	<path class="st12" d="M131.3,127.6c1.7,1.1,3.2,2.5,4.3,4.2c-0.5,3.3,1.4,3.6,3.9,3.3c0.9,0.6,1.7,1.2,2.6,1.8
		c-0.3,0.5-0.6,1-0.9,1.4c-0.4,0-0.9-0.2-1.2,0.4c0.5,0,0.9,0,1.4,0c1.1-0.5,1.6,0.1,1.8,1.1c0.5,2.7,1.5,5.4,1.4,8.2
		c-1.3,1.2-2.5,2.4-3.8,3.6c-1.6,1.5-1.8,3.3-0.7,5c3.7,5.6,8.1,10.6,14.2,13.8c3.5,3.2,6.3,7.1,10,10.1c3.1,2.6,5.7,3,8.5-0.3
		c2.2-2.6,5-4,8.5-3.9c5-0.6,8.7-3.2,11.4-7.3c2.8-3.1,4.7-6.6,5.8-10.7c2.1-5.6,2.4-11.4,1.5-17.2c-0.4-2.7,0.2-4,3-3.8
		c3.3,0.4,7.5-1.2,8.2,4.2c-2.4,2.7-1.9,6.2-2.9,9.3c-0.8,2.5-2.7,4.8-1.4,7.7c-5.5,11.3-14.2,18.6-26.4,21.6
		c-2.2,0.5-4.3,1.1-7.4,1.8c3.2,0.8,5.3-0.1,7.4-0.5c19-3.1,27.9-16.7,33.5-33.2c0.8-2.5,1.6-2.3,3.2-1.9c1.2,1,1.5,0.3,1.4-0.8
		c-0.1-0.8-0.3-1.5,0.8-1.5c0.3,0.6,0.9,0.7,1.5,0.7c0.3,0.2,0.5,0.4,0.8,0.6c0.1-0.1,0.1-0.2,0.2-0.3c-0.3-0.1-0.6-0.2-1-0.3
		c-0.3-0.6-0.9-0.7-1.5-0.8c-1.6-1.3-3.1-2.7-5.3-2.9c-0.7-0.6-0.7-1.4-0.9-2.2c0.6-0.2,0.9-0.7,1-1.3c2.3,0.2,5-0.8,6.6,1.5
		c1.7,2.4,3.4,4.9,3.8,8c-1.9,1.4-3.2-1.1-5-0.8c-0.3,1,0.3,1.5,1.1,1.7c3.4,0.9,2.9,3.1,2.3,5.7c-0.8,3.4-3.1,6.3-2.7,10
		c-1,2.1-2.9,3.4-4.7,4.6c-5.8,4.1-12.3,6.9-18.9,9.5c-4.7,1.8-9.4,3.7-14.1,5.5c0,0.2,0.1,0.3,0.1,0.5c0.7,0,1.5,0,2.2,0
		c-0.4,1.2-2,0.8-2.7,2.1c3.5-0.6,6.9-1.2,10.3-1.7c0,0.6,0,1.1,0,1.7c0.2,1.5,0.5,3,0.7,4.6c-1.4,0.8-3.8,1-2.3,3.7
		c-0.7,0.1-1.4,0.3-2.2,0.4c-2.1-2.1-2.1-2.1-3.7,1.2c-2,2.4-4.6,2.6-7.5,2.3c0,0-0.2-0.1-0.2-0.1c-0.9-0.8-2.1-0.6-3.1-0.7
		c-4.7-0.3-9.5-0.7-14.2-1c-0.8-0.1-1.6-0.2-2.4-0.3c-4.5,0-9-0.1-13.5-0.1c0.9-2.9,0.9-4.2-3.2-4c-7.5,0.4-15.2,1-22.6-1.4
		c0.8-2.5-1.7-5.2,0.3-7.7c0.5,0.4,0.9,0.9,1.4,1.2c0.9,0.6,1.7,1.7,2.9,1.2c1.2-0.6,0.8-1.9,0.7-3c0-1.7-0.2-3.4-0.4-5.8
		c-2.3,1.7-3.7,3.3-5,5.1c-3.1-0.7,0-1.5,0-2.2c0.3-0.5,0.5-1,0.8-1.6c0,0-0.1,0.1-0.1,0.1c1-0.2,1-0.8,0.8-1.6c0,0-0.1,0.1-0.1,0.1
		c1.2,0.3,1.4-0.7,1.9-1.4c3.7-4.9,5.1-4.8,8.7,0.4c0,0.6-0.1,1.2-0.1,1.8c-2.7,1-1.1,3.5-1.7,5.2c-0.4,1-0.6,2.4,0.6,3
		c1.1,0.5,2.1-0.4,3-1c0.6-0.4,1.1-0.9,1.7-1.4c1.2,0.6,0.7,1.5,0.6,2.5c-0.2,1.5,1.1,2.6,2.2,3.4c0.6,0.5,1.8,0.4,2.4-0.4
		c0.7-1.2,0.3-2.4-0.2-3.6c-0.6-1.1-1.1-2.2-1.7-3.4c0.8,0,1.5,0,2.3,0c1,0.3,1.9,0.6,2.9,0.9c0.7,2.6,3.2,3.2,5.2,4.2
		c1.3,0.7,3.1,2.6,4.2,1c1.3-1.9-1.5-2.2-2.5-3.2c-0.3-0.3-0.6-0.8-0.8-1.2c3.5,0.1,7.1,1.5,10.5-0.4c0.5-0.1,1.2,0,1.3-0.2
		c0.5-0.8-0.3-0.9-0.8-1.2c-4.7-2.5-9.3-4.9-14-7.4c-1.5-2.2-3-4.6-4.7-6.7c-3.1-3.8-4.8-8.9-10.4-10.1c-0.3-0.1-0.5-0.7-0.6-1.2
		c-0.5-2.5-1.1-5.1-1.4-7.7c-0.3-2.3-0.9-4.8,0.6-6.9c2.2-3.1,2.5-6.5,2.2-10.1C131.6,130.3,129.4,128.8,131.3,127.6z M175.8,188.5
		c-6.8-0.1-12.8,1-19.2-1C159.3,191.6,168.6,191.9,175.8,188.5z M135.4,151.3c0.6-2.9-0.8-4.2-3-4.6c-1.8-0.3-1.3,1.4-1.4,2.4
		c-0.4,2.7,1.8,3.9,3.6,4.4C135.9,153.9,135.2,151.8,135.4,151.3z M141.4,142.7c-3,0-5.5,0-7.9,0c-0.4,0-1,0.2-1.2,0.6
		c-0.4,0.7,0.2,1.1,0.7,1.5C135.9,147.2,138.3,146.7,141.4,142.7z"/>
	<path class="st0" d="M249,200.6c-0.1,0.5-0.2,0.9-0.2,1.4c-2.9,2.9-6.7,4.8-9,8.3l0,0c-3.8,0.7-6.7,3.1-9.8,5.2
		c-0.4,0.2-0.9,0.4-1.3,0.6c-3.8,1.6-7.5,3.1-11.3,4.7c-8.3,3.4-16.6,6.8-25.7,7.4c-2.1,0.1-5.3,0.7-6-1.5c-0.6-1.9,2.5-3,4.2-4.2
		c4.3-3.3,9.5-5.5,13.3-9.5c8.1-5.4,15.3-12,22.1-19.1c2.7-1.5,4.1-4.2,5.9-6.5c0.2-0.2,0.5-0.5,0.7-0.7c-0.5-0.5-0.9-0.2-1.2,0.2
		c-2.6,1.9-4.5,4.5-6.7,6.9c-6.9,6.1-13.7,12.3-22,16.5c-0.8-0.3-1.4-0.6-0.6-1.5c0.6-0.6,1.3-1.2,1-2.2l0,0
		c2.2-0.3,3.3-1.7,3.8-3.8l0,0c6.9-3.6,11.6-9.4,15.7-15.8c0.3-0.5,0.6-1.1,0.9-1.6c0.5,0,1-0.1,1.1-0.6c0.1,0,0.3-0.1,0.4-0.2
		c0.6,0.2,1,0,1.2-0.6c0,0,0.3-0.1,0.3-0.1c0.9,0.1,1.4-0.4,1.8-1.1c4.3-1.8,8.5-3.9,11.7-7.4c0.6-0.7,1.3-1.1,2.3-1
		C244.4,182.9,246.5,191.8,249,200.6z"/>
	<path class="st4" d="M188.8,194.8c0.7-0.1,1.4-0.3,2.2-0.4c6.7-0.3,13.1-2.4,19.5-4.3c0.2,1.2-0.7,1.8-1.4,2.4
		c-14.9,12.5-30.4,24.2-46.9,34.4c-2.1,1.3-3.7,1.6-5.6,0c2.2-3.7,6.4-4.5,9.7-6.6c5.1-3.3,10.3-6.4,15.3-9.9c3.2-2.3,3.4-6.2,5-9.4
		C187.4,199.1,188,196.9,188.8,194.8z"/>
	<path class="st9" d="M156.4,226.9c1.9,1.6,3.5,1.3,5.6,0c16.5-10.2,32.1-21.9,46.9-34.4c0.8-0.7,1.6-1.2,1.4-2.4
		c2.2-1.9,4.9-1.7,7.5-2.3c0,0.3,0.1,0.5,0.1,0.8c0,0,0,0,0,0c-0.2,0.1-0.5,0.2-0.7,0.3c-17,15.9-35.7,29.5-55.5,41.7
		c-1.1,0.6-2.3,1.2-2,2.8c-1.4-0.4-1-1.5-1-2.4c0-1.5-0.9-1.9-2.2-1.9C156.5,228.3,156.5,227.6,156.4,226.9z"/>
	<path class="st9" d="M221.7,186.9c-4,6.4-8.8,12.2-15.7,15.8c2.8-3.8,6.7-6.5,9.7-10c1.1-1.2,2.8-2.2,2.3-4.3c0,0,0,0,0,0
		c0.8,0.3,1.2-0.1,1.5-0.8c0,0,0,0.1,0,0.1c0.6-0.4,0.6-0.7,0-1.1C220.4,185.8,221,186.7,221.7,186.9z"/>
	<path class="st13" d="M193.3,190.7c-0.2-1.5-0.5-3-0.7-4.6c0.5,0.4,0.9,0.7,1.4,1.1c0.3,0.4,0.6,0.7,1.1,0.5
		c0.7-0.3,0.4-0.9,0.4-1.5c1.3-2.3,2.6,1.2,3.9,0c0,0-0.1,0-0.1,0c-0.2,1.1,0.5,0.9,1.1,0.8c1.1,0.5,2.3,1,3.4,1.5
		c-2.8,0.6-5.3,2.8-8.5,1.1C195,189.4,194,190.3,193.3,190.7z"/>
	<path class="st9" d="M227.3,182.7c-0.4,0.7-0.9,1.2-1.8,1.1C225.9,183.1,226.4,182.7,227.3,182.7z"/>
	<path class="st9" d="M223.7,184.7c-0.2,0.6-0.6,0.6-1.1,0.6C222.9,185.1,223.3,184.9,223.7,184.7z"/>
	<path class="st9" d="M225.2,183.9c-0.2,0.5-0.6,0.7-1.2,0.6C224.4,184.3,224.8,184.1,225.2,183.9z"/>
	<path class="st0" d="M219.5,187.7c-0.3,0.7-0.7,1.1-1.5,0.8c0-0.3-0.1-0.5-0.1-0.8C218.4,187.7,219,187.7,219.5,187.7z"/>
	<path class="st0" d="M219.5,186.7c0.5,0.4,0.6,0.8,0,1.1C219.5,187.4,219.5,187,219.5,186.7z"/>
	<path class="st10" d="M111.3,292c-4,2.3-8.4,3-12.9,3c-11.4-0.1-22.9,0-34.4,0c-0.8-1.3,2-1.6,1-3c0.1-1.4,1.2-1.1,2.1-1.4
		c3.1-1.1,5.4-3.3,6.8-6.3c4.8-2.8,9.7-5.5,13.8-9.4c1.5,0.3,2.5-0.6,3.6-1.5c0.3-0.2,0.6-0.4,0.9-0.6c0,0,0,0,0,0
		c2.8-1.4,7-1.2,8.1-4.9c3.9-12.6,7.5-25.3,11.2-38c0.2-0.5,0.4-1.1,0.6-1.6c1.3-1.2,2.3-3,4.5-2c0,0.5,0,0.9,0,1.4
		c-1.9-0.2-2.7,0.9-3.2,2.5c-1,3.2-2.2,6.4-3.1,9.6c-2.6,8.6-5.1,17.2-7.6,25.8c-0.3,1-1.1,2.6,0.3,2.9c1.4,0.4,3-0.2,3.2-2.2
		c0.1-0.9,0.4-1.7,0.7-2.5c2.4-9.3,5-18.5,8.3-27.5c0.5-1.4,0.7-3.2,2.3-4c0.9,0.2,0.5,0.9,0.7,1.5c-4.4,10.3-7.1,21.1-10,31.9
		c-0.6,2.1,0.6,1.9,1.9,1.9c5.5-0.2,10.9-0.2,16.3,0.8c0,0.7,0,1.5-0.1,2.2c-1.6,6-3.6,11.8-6.8,17.1c-0.9,1.3-1.8,2.6-2.8,3.8
		C114.9,290.6,112.9,290,111.3,292z"/>
	<path class="st1" d="M126.5,268c-5.4-1.1-10.9-1-16.3-0.8c-1.3,0-2.4,0.2-1.9-1.9c2.9-10.8,5.6-21.6,10-31.9c2.1,1.7,4,3.6,7.1,3.4
		c1.2-0.1,2.8,0.6,3.6,2.2c1,2,3.1,3.9,4.8,3.8c5.1-0.3,9.8,2.1,14.8,1.9c1.2,0,1.9-0.5,2.2-1.6c1,7.1,0.3,14.3,0.5,21.4
		c0.1,2.1,0.1,4.2,0.1,6.3C143.1,269.7,134.9,267.9,126.5,268z"/>
	<path class="st12" d="M100.3,200.5c6.7-0.2,13.2,0.8,19.9,1.4c2.5,0.2,4.9-0.7,7.3-0.6c0.9,0.9,2.1,0.5,3.2,0.5
		c11.2,0,22.4,0,33.7-0.1c5.2-0.1,10.3-0.8,15.4-2.1c1.3,0.4,2.9-1,3.9,0.8c-0.8,0.5-1.6,1-2.5,1.6c0,0,0-0.1,0-0.1
		c-0.8-0.2-1.4-0.1-1.8,0.7l-0.1,0c-0.9-0.1-1.7-0.1-2.2,0.7l-0.1,0c-1.1-0.2-2.2-0.3-3,0.7l0,0c-2.4-0.3-4.8,0-7.1,0.8
		c-2.2,0.8-4.5,0.8-6.9,0.8c-1,0.1-2,0.2-3,0.3c-0.6,0-1.2,0-1.8-0.1c-2.7-0.1-5.4-0.9-7.9,0.6c-4.5,0-8.9,0.1-13.4,0.1
		c-3.3-1.4-6.6-1.4-9.9-0.2c-0.8,0-1.5,0-2.3,0.1c-2.1,2.3,0.2,4,0.9,5.9c0.1,0.5,0.2,1.1,0.3,1.6c0.1-0.1,0.3-0.1,0.3-0.2
		c0.2-0.6,0-1.1-0.6-1.4c0-1.3,0-2.5,0-3.8c1.4,0.4,2.8,1,4.2,1.3c2.2,0.4,4,0.1,4.1-2.6c1.1-0.1,2.1-0.2,3.2-0.3
		c4.4,0,8.7,0,13.1,0c2.4,0.1,4.7,0.1,7.1,0.2c-3.6,4.5-6.7,9.4-9.6,14.4c-2.8,0.2-4.4,2.7-6.8,3.6c-0.6,0.2-1,0.8-0.7,1.5
		c0.4,0.9,1.2,0.6,1.9,0.4c1.4-0.5,2.3-1.9,4-1.9c-0.8,1.8-1.6,3.6-2.4,5.5c-1.2,2.9-3.5,4.1-6.5,4.3c-1.2,0.1-2.5,0.1-3.7,0
		c-8.7-0.7-9.4-1.2-11.1-9.8c-1.2-5.6-2.4-11.2-3.3-16.9c-0.4-2.4-1.3-3-3.4-2.5c-3.1-0.7-6.3-0.9-9.6-0.7c-1.9-0.6-1.1-3.2-2.9-3.9
		C100.2,201,100.3,200.7,100.3,200.5z M124.8,226.5c3.3,2.3,6.8,1.7,10.3,1C131.8,225.2,128.3,226.4,124.8,226.5z"/>
	<path class="st0" d="M96.3,247.2c-0.9-0.3-1.4-0.9-1.3-1.9c-0.7-5.9-3-11.4-5.2-16.9c-0.6-1.5-1.7-2.1-3.3-1.2
		c-1.6,0.9-3.2,1.8-4.9,2.6c-0.3-0.3-0.7-0.6-1-1c0.6-0.7,1.1-1.4,1.7-2c1.1-0.2,2.1-0.8,2.9-1.6c2.3-1.8,5.1-2.8,6.7-5.3
		c0,0,0,0,0,0c3.4-1.1,5.8-3.9,9-5.3c2.4,2.2,4.6,4.6,7.2,6.4c3,2.1,3.2,4.3,1.6,7.2c-0.3,0.6-0.4,1.4-0.7,2.1c0,0,0.1,0,0.1,0
		c-0.6,0-0.7,0.3-0.8,0.8l0,0c-0.9,0.5-1.3,1.3-1.5,2.3l0,0c-0.7,0.3-1,0.7-0.8,1.5l0,0c-1.4,0.5-1.9,1.7-2.2,3l0,0
		c-1.3,0.9-2.4,1.9-2.3,3.7l0.1,0c-1.7,0.3-1.9,1.7-2.3,3.1l0,0C98,245,97.9,247,96.3,247.2z"/>
	<path class="st13" d="M179.3,202.8C179.3,202.8,179.4,202.7,179.3,202.8c0.8,0.1,1.6,0.2,1.9-0.7c0,0,0,0.1,0,0.1
		c1-0.3,1.9-0.4,1.4,1.1c-0.8,2.2-1.7,4.3-3.8,5.8c-9.7,6.6-19.9,12.2-29.9,18.4c-0.7,0.4-1.4,0.5-2.1,0.2c0,0,0.1,0,0.1,0
		c0-0.6-0.1-0.9-0.8-0.8l0.1,0.1c2.4-2.4,0.3-7.2,4.7-8.5c0.8-0.2-0.3-0.9-0.3-1.5c-0.1-1.8,1-1.3,1.9-1c0.3,0.1,0.8,0.3,0.9,0.2
		c0.3-0.4-0.1-0.6-0.4-0.7c-2-3.1,2-3.8,2.5-6c0.5-1.9,2,0.8,3.1-0.2c-0.4-0.9-0.9-1.8-1.3-2.7c1.5,0,2.2,1.5,3.5,1.8
		c0.3,0.4,0.6,0.8,1.1,0.3c0.1-0.1-0.1-0.5-0.2-0.8c-0.5-0.6-1.5-0.9-1.5-1.9c2.3,0,4.6,0,6.9-0.8c2.6,1.6,4.8-0.1,7.1-0.8
		c0,0,0,0,0,0c1.1,0.2,2.1,0.2,3-0.7c0,0,0.1,0,0.1,0C178,203.6,178.8,203.6,179.3,202.8z M163,209.7c0.2,0.1,0.3,0.3,0.5,0.4
		c0,0,0.2-0.1,0.3-0.2c-0.2-0.1-0.4-0.3-0.6-0.4c-0.2-0.2-0.4-0.4-0.6-0.6c0,0-0.2,0.1-0.2,0.2C162.6,209.3,162.8,209.5,163,209.7z"
		/>
	<path class="st1" d="M111.6,229.8c-3.7,12.7-7.3,25.3-11.2,38c-1.2,3.8-5.3,3.5-8.1,4.9c0.4-1.3,0.8-2.6,1.3-4l0,0
		c1.6-0.8,2.4-2.2,3.2-3.8c3.6-6.4,2.8-13.4,2.8-20.2c0,0,0,0,0,0c1.5-0.5,1.7-1.9,2.3-3.1c0,0-0.1,0-0.1,0c1.6-0.7,2.1-2.1,2.3-3.7
		c0,0,0,0,0,0c1.3-0.6,2.3-1.5,2.2-3c0,0,0,0,0,0c0.7-0.3,0.9-0.8,0.8-1.5c0,0,0,0,0,0c1.1-0.4,1.6-1.1,1.5-2.3c0,0,0,0,0,0
		c0.3-0.3,0.5-0.5,0.8-0.8c0,0-0.1,0-0.1,0C109.9,230.2,110.7,230,111.6,229.8z"/>
	<path class="st14" d="M117.6,232c-1.6,0.8-1.8,2.6-2.3,4c-3.3,9-5.9,18.3-8.3,27.5c-0.2,0.8-0.6,1.7-0.7,2.5
		c-0.2,2.1-1.8,2.6-3.2,2.2c-1.4-0.4-0.6-1.9-0.3-2.9c2.5-8.6,5-17.2,7.6-25.8c1-3.2,2.1-6.4,3.1-9.6c0.5-1.6,1.2-2.7,3.2-2.5
		C117.6,228.9,117.4,230.5,117.6,232z"/>
	<path class="st9" d="M100.3,201.2c1.8,0.7,1,3.3,2.9,3.9c0,0.6,0.1,1.1,0.6,1.5c3.6,3.5,6.7,7.6,10.9,10.4c1,1.3,0.3,2.6-0.3,3.8
		c-5.5-4.5-10.6-9.4-15.2-14.9c-1.3-1.6-2.7-2.9-5.1-2.4c0,0,0,0,0,0C96.1,202.5,98,201.4,100.3,201.2z"/>
	<path class="st3" d="M94.2,203.5c2.3-0.5,3.7,0.8,5.1,2.4c4.6,5.5,9.7,10.4,15.2,14.9c-1.2,2.6-2.7,0.9-3.8,0
		c-5.9-4.9-11.5-10.1-16.6-15.8c0-0.3-0.1-0.5-0.1-0.8C94,204,94.1,203.7,94.2,203.5z"/>
	<path class="st8" d="M156.6,229c1.3,0,2.2,0.4,2.2,1.9c0,0.9-0.3,2.1,1,2.4c1.6,0.9,3.2-1.3,5.2,0.2c-2.2,1.8-4.6,2.4-7.2,2.5
		c-0.1-0.2-0.3-0.4-0.3-0.7c-0.4-2.6-1.6-4.7-4.4-4.5c-2.8,0.3-2.7,2.8-2.8,4.9c-0.2,0-0.4,0-0.6,0c-0.4-2.1-1.4-4.2,0.8-6
		C152.5,228.2,154.4,227.8,156.6,229z"/>
	<path class="st3" d="M150.2,237.8c0.5,1.6,0.4,3.2,0.3,4.8c-4.8,0.6-9-1-12.9-3.5c-0.6-0.4-1.9-0.7-0.7-1.8
		c0.7,0.1,1.8-0.1,2.1,0.3c2.4,3,5.1,2.1,7.9,0.8C148,237.9,149.2,238,150.2,237.8z"/>
	<path class="st5" d="M103.9,206.6c-0.5-0.4-0.6-0.9-0.6-1.5c3.2-0.2,6.4-0.1,9.6,0.7c1,2.2,0.9,4.6,1.2,6.9
		c-2.4-1.8-4.7-3.7-7.1-5.4C106.1,206.7,105.3,204.9,103.9,206.6z"/>
	<path class="st9" d="M150.2,237.8c-1.1,0.2-2.3,0.1-3.2,0.5c-2.8,1.3-5.5,2.2-7.9-0.8c-0.3-0.4-1.4-0.2-2.1-0.3
		c1.3-1.5,3-1.5,4.8-1.5c2.2,1.9,3.8-0.7,5.7-0.8c0.5,0.9,1.4,0.8,2.2,0.8c0.2,0,0.4,0,0.6,0C150.3,236.5,150.3,237.2,150.2,237.8z"
		/>
	<path class="st3" d="M103.9,206.6c1.4-1.7,2.2,0.1,3,0.7c2.4,1.7,4.7,3.6,7.1,5.4c0.8,1.4,0.5,2.9,0.8,4.4
		C110.5,214.2,107.4,210.1,103.9,206.6z"/>
	<path class="st10" d="M143.1,225.2c-1.6,0-2.6,1.5-4,1.9c-0.7,0.2-1.5,0.5-1.9-0.4c-0.3-0.7,0.1-1.3,0.7-1.5c2.4-0.9,4-3.4,6.8-3.6
		C144.5,223,144.1,224.2,143.1,225.2z"/>
	<path class="st3" d="M147.5,235c-1.9,0-3.5,2.6-5.7,0.8c0.9-2.6,4-2.5,5.4-4.4C147.3,232.5,147.5,233.7,147.5,235
		C147.6,234.9,147.5,235,147.5,235z"/>
	<path class="st9" d="M101,214.7c-3.2,1.4-5.6,4.2-9,5.3c1.6-3.1,4.9-4.2,7.5-6C100.1,214,100.7,214.1,101,214.7z"/>
	<path class="st7" d="M183.6,200.5c-1-1.9-2.6-0.4-3.9-0.8c-0.7-0.5-1.4-0.9-2.2-1.3c2.8,0.3,5.5,0.1,7.5-2.3
		C184.8,197.6,184.9,199.3,183.6,200.5z"/>
	<path class="st8" d="M116.7,226.1c-2.2-0.9-3.2,0.8-4.5,2c0-0.6,0-1.2,0.1-1.8c0.3-1.5,1.1-3,2.7-3
		C116.5,223.3,116.1,225.1,116.7,226.1z"/>
	<path class="st10" d="M154.4,207.3c-2.4-0.1-4.7-0.1-7.1-0.2c0-0.2,0.1-0.3,0.2-0.5c2.5-1.5,5.3-0.7,7.9-0.6
		C155.2,206.5,155,207.1,154.4,207.3z"/>
	<path class="st10" d="M143.8,229.8c0.3-1.4,0.4-2.8,2.3-3c0,0-0.1-0.1-0.1-0.1c0,0.5,0.4,0.7,0.8,0.8c0,0-0.1,0-0.1,0
		C146.7,229.6,145.3,229.8,143.8,229.8L143.8,229.8z"/>
	<path class="st7" d="M160.8,208.2c-1.4-0.2-2.1-1.8-3.5-1.8c0,0-0.1-0.2-0.1-0.2s0.1-0.2,0.1-0.2c1-0.1,2-0.2,3-0.3
		c0,1,0.9,1.3,1.5,1.9C161.4,207.9,161.1,208,160.8,208.2z"/>
	<path class="st8" d="M147.6,234.9c-0.1-1.2-0.3-2.4-0.4-3.6C148.8,232.4,148.4,233.6,147.6,234.9z"/>
	<path class="st10" d="M143.7,229.7c0,0.2,0,0.3-0.1,0.5c-0.1,0-0.2,0-0.3,0C143.5,230,143.6,229.9,143.7,229.7
		C143.8,229.8,143.7,229.7,143.7,229.7z"/>
	<path class="st7" d="M93.9,204.2c0,0.3,0.1,0.5,0.1,0.8c-0.1-0.2-0.3-0.3-0.3-0.5C93.7,204.4,93.8,204.3,93.9,204.2z"/>
	<path class="st4" d="M191.8,361.7c3.9,1.6,7,4.6,10.5,6.8c0,0.5-0.1,0.9-0.1,1.4c-0.4,0.3-0.9,0.6-1.3,0.8
		C197.8,367.7,193.4,366.1,191.8,361.7z"/>
	<path class="st4" d="M191.6,360.4c0.1,0.4,0.1,0.9,0.2,1.3c-1.1,0-1.9-0.5-2.3-1.6C190.2,360.2,190.9,360.3,191.6,360.4z"/>
	<path class="st0" d="M158.1,242.8c0-1-0.1-2-0.1-3c3.8-0.4,7.5-0.7,11.3-1.1c0.9,0.1,1.7,0.1,2.3-0.6c1-0.1,1.9-0.1,2.9-0.2
		c6.8-0.9,13.4-2.5,19.9-4.8c0.8-0.3,1.5-0.5,2.3-0.8c9.7-2.1,18.8-5.9,27.6-10.5c0.2-0.1,0.5-0.1,0.7-0.3c0.3-0.2,0.7-0.4,1-0.6
		c3.2-1.7,6.9-2.6,9.6-5.3c1.9,0,3.1-1.3,4.6-2.1c2.9-1.5,1.5-2.4-0.3-3.3c0,0,0,0,0,0c4.1-1.4,7-4.4,9.8-7.6c2.7,3.3,3,9,0.7,11.7
		c-0.5,0.4-0.9,0.8-1.4,1.1c0,0,0,0,0,0C221.7,235.1,191.1,242.9,158.1,242.8z"/>
	<path class="st3" d="M94.5,191.5c2.2,0.5,4.8-1.2,6.5,1.5c-6-0.2-12,0.7-17.9-0.5c-1.4-4.4-4.7-7.7-6.8-11.7
		c-3.3-6.1-6.6-12.3-8.6-19c-0.5-1.6-0.4-1.6,1.2-1.6c0,0.9,0.5,1.5,1.2,2.1c2.1,6.7,6,12.5,9.9,18.3c1.8,4,4.9,7.1,7.2,10.9
		c0.9,1.4,2.3,1,3.7,0.6c-0.7-2.2-3.3-3.3-3.3-5.8c0.8,0.1,1.3,1.1,2.3,0.8c0,0,0,0,0,0c0.2,1.9,1.5,2.9,3,3.8c0,0,0,0,0,0
		C92.9,192,93.1,193,94.5,191.5z"/>
	<path class="st9" d="M140,20.4c-3.3,3.1-6.6,6.3-10,9.4c-0.5,0.5-1.2,1.7-2,0.5c-0.6-0.8,0.1-1.6,0.8-2.2c3.7-2.9,7-6.2,11.2-8.5
		C140,19.9,140,20.2,140,20.4z"/>
	<path class="st9" d="M92,220c-1.7,2.5-4.5,3.6-6.7,5.3c-0.8-0.4-0.9-1.1-0.8-1.8C87.5,223.5,88.8,219.6,92,220z"/>
	<path class="st7" d="M70.1,162.2c-0.7-0.5-1.3-1.1-1.2-2.1c0.2-0.3,0.5-0.5,0.7-0.8c0.7,0.4,0.8,1.1,0.7,1.8
		C70.2,161.5,70.1,161.8,70.1,162.2z"/>
	<path class="st9" d="M249.5,202.7c-2.7,3.2-5.6,6.2-9.8,7.6c2.3-3.5,6.1-5.4,9-8.3C249,202.2,249.2,202.4,249.5,202.7z"/>
	<path class="st2" d="M248.8,215.5c0.5-0.4,0.9-0.8,1.4-1.1c0,0.3,0,0.7,0,1.1C249.7,215.5,249.3,215.5,248.8,215.5z"/>
	<path class="st3" d="M80.7,228.9c0.3,0.3,0.6,0.6,1,1c-1.6,1.1-3.2,2.3-4.8,3.4c-0.7,0-1.4,0.1-2.1,0.1
		C76.4,231.6,78.6,230.3,80.7,228.9z"/>
	<path class="st9" d="M215.7,280.6c1.6-8.5,5-16.3,9.9-23.4c0.7-0.9,1.4-2.2,2.9-1.9c-4.2,6.2-7.9,12.6-9.9,19.8
		c-0.4,1.4-1.2,2.7-1.1,4.3C217,280,216.5,280.5,215.7,280.6z"/>
	<path class="st9" d="M228.5,255.2c0.6-2.4,2.3-3.7,4.5-4.5C232.5,253.2,230.7,254.5,228.5,255.2z"/>
	<path class="st14" d="M152.8,270.9c0-11.4,0.5-22.9-0.7-34.3c-0.1-1.3-1-3.4,1.3-3.6c2.2-0.2,2.3,1.9,2.3,3.5
		c0.6,11.7,0.9,23.4,0.6,35.1c-0.4,0-0.8,0-1.3,0c-0.4-0.7-1-0.7-1.6-0.5C153.2,271.1,153,271,152.8,270.9z"/>
	<path class="st10" d="M153.5,271c0.6-0.2,1.2-0.2,1.6,0.5c-0.5,0-1,0.1-1.5,0.1C153.6,271.4,153.5,271.2,153.5,271z"/>
	<path class="st14" d="M152.8,330.9c-0.1,9-1.6,17.8-3.1,26.7c-0.2,1.1-0.6,2.2-1.1,3.2c-0.5,1-1.5,1.4-2.5,1
		c-1.2-0.4-0.6-1.4-0.5-2.2c1.2-10.8,2.3-21.5,3.4-32.3c1.5,0.4,1.7,2.5,3.5,2.6C152.6,330.1,152.7,330.5,152.8,330.9z"/>
	<path class="st5" d="M147.5,325.9c-0.4,3.3-0.8,6.5-1.2,9.8c-2.6-0.1-5.1-1.3-7.7-0.9c0-1.5,0-3.1,0-4.6c1.9-2.4,6.2-2.4,6.5-6.5
		C146.4,323.9,147,324.9,147.5,325.9z"/>
	<path class="st0" d="M145.4,343.8c-0.3,3.2-0.3,6.5-0.9,9.7c-1.3,6.5,0.8,13.4-2,19.7c-1.7-9.5-2.7-19.1-3.6-28.7
		c0.1-0.3,0.2-0.5,0.3-0.8C141.3,343.8,143.3,343.8,145.4,343.8z"/>
	<path class="st4" d="M145.4,343.8c-2.1,0-4.1-0.1-6.2-0.1c-1.1-2.9-0.6-6-0.6-9c2.7-0.4,5.1,0.8,7.7,0.9
		C146,338.4,146.3,341.2,145.4,343.8z"/>
	<path class="st13" d="M73.9,284.1c-1.4,3-3.7,5.2-6.8,6.3c-0.9,0.3-2,0.1-2.1,1.4c-1.2,0.1-2.4,0.1-3.6,0.2c-1.8-2-4.3,1.4-6.1-0.8
		c0,0,0,0,0,0c0.5,0,0.9-0.2,0.8-0.8c0,0,0,0,0,0c0.6,0.1,0.7-0.4,0.8-0.8c0,0-0.1,0-0.1,0c0.5-0.5,1-1,1.5-1.5
		c2.7-1.4,4.9-3.5,6.8-5.9c0.6-0.2,1.5,0.2,1.5-0.9c0,0,0,0.1,0,0.1c1.4-0.7,2.2,0.3,3.1,1.1C70.8,283.9,71.5,286.6,73.9,284.1z"/>
	<path class="st9" d="M55.3,291.3c1.8,2.1,4.3-1.3,6.1,0.8c-3,1-6.1,1.1-9.5,1.6C52.7,291.7,53.7,291,55.3,291.3z"/>
	<path class="st9" d="M58.3,288.3c-0.5,0.5-1,1-1.5,1.5C56.8,288.8,57.3,288.3,58.3,288.3z"/>
	<path class="st9" d="M66.6,281.5c0,1.1-0.9,0.7-1.5,0.9C65.2,281.6,65.8,281.4,66.6,281.5z"/>
	<path class="st9" d="M56.8,289.8c-0.1,0.4-0.2,0.9-0.8,0.8C56,290,56.3,289.8,56.8,289.8z"/>
	<path class="st9" d="M56.1,290.5c0.1,0.6-0.2,0.8-0.8,0.8C55.3,290.8,55.5,290.5,56.1,290.5z"/>
	<path class="st0" d="M73.9,284.1c-2.4,2.5-3.1-0.2-4.3-1.4c0-0.7-0.1-1.4-0.1-2c1.9-4.2,6.2-5.8,9.3-8.5c2.1-1.8,4.1-4.3,7.2-4.9
		c0,1.2-0.1,2.5-0.1,3.7c-0.5,0.4-0.7,0.9-0.6,1.5c0,0.1,0.2,0.1,0.3,0.2c0.2-0.5,0.3-1,0.5-1.6c1.9-2.2,2.8-4.8,3.5-7.5
		c0.3-0.3,0.6-0.6,0.9-0.9c0.6-0.3,0.7-0.8,0.7-1.4c0,0,0,0,0,0c3.4-1.2,4.7-3.3,3-6.8c0-0.4,0-0.8,0-1.2c0.8-1.6,1.5-3.2,2.3-4.8
		c3.7,1.1,2,4.1,1.9,6.3c-0.2,5.1-3.1,9.4-5,14c0,0,0,0,0,0c-1.9,2-3.9,4-5.8,6.1C83.6,278.6,78.7,281.4,73.9,284.1z"/>
	<path class="st12" d="M146.1,367.8c-0.2,1.4,0.4,2.9-1.2,4.7c-0.5-2.2,0.2-3.5,1-4.8L146.1,367.8z"/>
	<path class="st12" d="M145.9,367.7c0.2-1-0.3-2.1,0.5-3.1c0.7,1.2,0.6,2.3-0.3,3.3C146.1,367.8,145.9,367.7,145.9,367.7z"/>
	<path class="st0" d="M157.8,236c2.5-0.1,4.9-0.7,7.2-2.5c-2-1.5-3.6,0.7-5.2-0.2c-0.3-1.6,1-2.1,2-2.8
		c19.8-12.2,38.5-25.9,55.5-41.7c0.2-0.2,0.4-0.2,0.7-0.3c0.5,2.1-1.3,3-2.3,4.3c-3,3.5-6.9,6.2-9.7,10c0,0,0,0,0,0
		c-1.7,0.8-3.4,1.6-3.8,3.8c0,0,0,0,0,0c-1.6,0.8-3.8,2.5-2.7,3.6c2,2.2,0.1,2.6-0.9,3.2c-2.5,1.8-5.3,3.2-7.9,5
		c-5.1,3.4-11,5.6-16,9.3c-0.9,0.7-1.8,1.4-2.7,2c-1.3,0.2-2.6,0.3-3.4,1.8c1.4,1.2,2.5,0.4,3.6-0.3c1.3-0.6,3.1-0.2,3.7-2.1l0,0
		c2.1,0.5,3.5-1.1,5.1-1.9c0.7-0.3,1.9-0.8,1.9-0.8c2.5,4.5,7.1,2.9,11.9,3.6c-3.4,0.9-5.8,1.4-8.1,2.1c-5.4,1.6-11,2.1-16.2,4.2
		c-0.4,0-0.9,0.1-1.3,0.1c-0.9-0.2-1.7,0-2.5,0.6c-3,0.4-5.9,0.8-8.9,1.2C157.9,237.5,157.9,236.8,157.8,236z"/>
	<path class="st2" d="M157.9,238.3c3-0.4,5.9-0.8,8.9-1.2c0.9,0.2,1.8,0.3,2.5-0.6c0.4,0,0.9-0.1,1.3-0.1c1.3,0.5,2.5,1,3.8,1.4
		c-1,0.1-1.9,0.1-2.9,0.2c-0.8-0.1-1.7-0.1-2.3,0.6c-3.8,0.4-7.5,0.7-11.3,1.1C157.9,239.3,157.9,238.8,157.9,238.3z"/>
	<path class="st2" d="M224.6,147.3c-0.4-3.1-2-5.6-3.8-8c-1.6-2.2-4.3-1.3-6.6-1.5c-1.1-0.2-1.9-0.1-1,1.3c0.2,0.8,0.2,1.6,0.9,2.2
		c0,1.5,0,2.9,1.9,3.3c0.9,0.2,1.3,1,1.1,1.9c-1.7-0.4-2.4-0.6-3.2,1.9c-5.6,16.5-14.5,30.1-33.5,33.2c0-0.4,0-0.9,0-1.3
		c12.3-3,21-10.3,26.4-21.6c1.8-1.7,2.6-3.9,3.4-6.1c1.4-3.5,3.1-7.1,0.9-11c-0.7-5.4-4.9-3.9-8.2-4.2c0-0.4,0-0.8,0-1.2
		c1.6-0.1,3.2-0.3,5.1-0.4c-1.3-2.1-2.4-3.6-4.3-4.6c-3.2-3.6-7.2-5.7-12-6.6c-1.4-1-3-0.8-4.6-0.7c-5.5-0.9-10.7,0.4-15.8,2.3
		c-2,0.5-4,1-6,1.5c0-0.5,0-1.1,0-1.6c9-3.7,18.1-5.9,27.8-3.5c6.6,1.7,11.7,5.8,16.3,10.5l0,0c0.4,1.2,0.8,2.5,2.4,2.7
		c2,0.2,4,0.5,6.2,0.2c-6.7-10.2-19.8-19.7-31.8-18c-1.6,0.1-3.2-0.1-4.8,0.2c-12.7,2-24.4,6.9-36.4,11.1c-0.8,0.1-1.6,0.2-2.5,0.4
		c-1.6,0.1-3.3,0.3-4.9,0.4c-0.3-0.3-0.6-0.6-0.9-0.9c9.6-1.5,18-6.5,27-9.8c8-2.9,16.3-4.7,24.6-5.6c2.8-0.3,6.7-1.3,9.8,1.3
		c0.8,0.6,2.3-1.8,4.3,0.8c-3.9-18.1-3.5-33.9,12.9-44.9c0.1,0.5,0.1,0.9,0.2,1.4c0,0,0,0,0,0c-0.3,0.2-0.6,0.5-0.8,0.7
		c-1.6,3.2-6.2,4.7-5.4,9.3c-4.9,0.6-2,3.2-1.2,5c-0.5,1.2-3.4-2.1-2.3,1.4c0.3,0.9,1.6,1.2,1.4,2.7c-1,0.2-1.7-1.9-2.6-0.8
		c-0.7,0.9-0.6,2.1,0.5,3c0.5,0.4,1,0.8,0.6,1.5c-1.3,2.3-1.3,2.3,0.6,4.5c-0.7,1.4-2.2-1.4-2.6,0.4c-0.5,2,1.9,2.3,2.6,3.8
		c-2.8,1-2.8,2.4-0.6,4.1c0.8,0.6,1.5,1.3,2.2,2c-0.3,0.2-0.5,0.5-0.8,0.7c-0.7-0.2-1.7-0.8-1.9-0.6c-0.6,0.5-0.3,1.5,0.2,2
		c1.3,1.4,2.7,2.6,4,3.8c-0.2,0.2-0.5,0.5-0.7,0.7c-0.7-0.3-1.3-0.6-2-0.9c-0.7,2.2,1,3.1,2.3,3.9c6.9,4.3,10,12.1,16,17.3
		c1.3,1.1,3.6,3.7,3.7,6.7c0.1,1.8-0.2,4.2,2.1,5.2c-3.3,1.5,1.4,4.6-1.5,6.9c-1.4,1.1-2.8,4.6-1,7.3c-0.2,0.1-0.3,0.3-0.5,0.5
		c-0.7-0.1-1.7-1.1-2-0.4c-1,2.6-3.2,4-4.7,6.1c-0.2,0.2,0.3,0.9,0.4,1.3c-0.2,0.2-0.4,0.4-0.5,0.6c-2.7-1.9-1.9,1.8-3.5,2.2
		c-3.7,0.9,2,2.2-0.3,3.4c-1.4-2.5-3.5,0.7-5.4-0.3c-1.4-1.8-2.4-0.7-2.7,0.7c-0.3,1.7-1.3,0.5-1.9,0.7c-2.4,0.9-5.4,0.6-6.8,3.5
		c-0.8-0.1-1.8-0.1-1.2,1c0.4,0.8,1.5,1.2,2,2.1c-1.7,0.2-2.6-1-3.7-1.7c-0.6-1-1.1-1.8-2.5-0.6c-1.2,1-2.8,1.4-4.4,1.4
		c-2.1-0.2-4.1-0.1-6,0.7c-0.7,0-1.5,0-2.2,0c0-0.2-0.1-0.3-0.1-0.5c4.7-1.8,9.4-3.7,14.1-5.5c6.6-2.6,13.1-5.4,18.9-9.5
		c1.8-1.3,3.7-2.5,4.7-4.6C224.3,159,227.3,153.9,224.6,147.3z"/>
	<path class="st10" d="M135.9,117c-0.6-0.6-0.9-0.8-0.9-1c-0.6-11.7-1.3-23.5,4.1-34.5c0.5-1,0.7-2.3,2.1-2.4
		c1.5-0.1,3.3-0.8,4.3,0.4c0.9,1-0.5,2.3-1,3.3C139.3,93.5,137.2,105,135.9,117z"/>
	<path class="st10" d="M229.3,79.6c7.1,12.5,11.8,25.7,13.6,41c-3.3-3.8-5.3-6.8-5.9-10.9c-1.4-9.9-4.3-19.3-7.6-28.7
		C229.4,80.6,229.4,80.1,229.3,79.6z"/>
	<path class="st10" d="M238.7,120c2.2,2.7,5.2,5,4.7,9c-1,9.3-2.2,18.4-5.3,27.3c-0.2,0.7-0.6,1.3-1.3,1.8
		C239.2,145.5,239.8,132.8,238.7,120z"/>
	<path class="st10" d="M223.9,103c-1.7,0.6-2.7,0.6-3.1-1.9c-0.9-6.4-2.4-12.6-3.6-19c-0.2-0.8-1.2-2,0.5-2.4
		c1.2-0.3,2.2-0.1,2.6,1.4c1.2,4.1,2.4,8.1,3.6,12.1c-1.1-0.1-1.5,0.2-1.3,1.4C223.2,97.5,223.5,100.3,223.9,103z"/>
	<path class="st2" d="M223.9,103c-0.4-2.8-0.7-5.5-1.2-8.3c-0.2-1.2,0.1-1.6,1.3-1.4c2.9,13.2,3.3,26.5,1,34.4
		c-0.9-2.4-0.1-4.6-0.4-6.7c0.2-4.8,0.6-9.6-0.5-14.3C223.9,105.5,223.9,104.3,223.9,103z"/>
	<path class="st10" d="M224,106.7c1.2,4.7,0.8,9.5,0.5,14.3c-2.6-1.7-0.7-4.6-1.7-6.8c-0.8-1.6-0.3-3.6-0.8-5.4
		C221.4,107.2,222.4,106.6,224,106.7z"/>
	<path class="st9" d="M190.9,183.3c1.6,0,3.2-0.4,4.4-1.4c1.4-1.2,1.9-0.4,2.5,0.6c-0.8,0.1-1.5,0.3-0.6,1.3
		c0.8,0.8,1.9,1.2,2.1,2.5c-1.3,1.2-2.6-2.3-3.9,0c-0.6,0.2-1.2,0.3-1.5,1c-0.5-0.4-0.9-0.7-1.4-1.1c0-0.6,0-1.1,0-1.7
		C192,184,191.5,183.7,190.9,183.3z"/>
	<path class="st9" d="M200.7,181.1c1.4-2.9,4.4-2.6,6.8-3.5c-0.1,0.2-0.1,0.3,0,0.5c-1,0.3,0,2.3-2.3,2c-3.5-0.6-1,1.4-0.7,2.4
		c-0.2,0.1-0.4,0.3-0.5,0.5C202.9,182.3,201.8,181.7,200.7,181.1z"/>
	<path class="st10" d="M240.5,78.2c3.4,1.5,3.9,5,5.5,7.8C243.6,83.8,241.8,81.3,240.5,78.2L240.5,78.2z"/>
	<path class="st7" d="M207.5,178.1c-0.1-0.2-0.1-0.3,0-0.5c0.6-0.2,1.5,1,1.9-0.7c0.3-1.4,1.3-2.5,2.7-0.7c-3.4,1.6,0.2,2.4,0.4,3.5
		c-0.2,0.2-0.4,0.4-0.6,0.6C210.3,179.9,209.3,178.2,207.5,178.1z"/>
	<path class="st7" d="M130,110.5c0,3.1,0,6.1,0,9.2c-0.1,0-0.3,0-0.4,0.1c-0.3-3.1-0.5-6.2-0.8-9.2
		C129.3,110.5,129.6,110.5,130,110.5z"/>
	<path class="st10" d="M218,71.4c3,1.7,0.2,3.8,0.3,5.7c0,0-0.7,0.3-1,0.2c-0.5-0.2-0.5-0.7-0.4-1.2C217.2,74.5,218.3,73.1,218,71.4
		C218,71.3,218,71.4,218,71.4z"/>
	<path class="st8" d="M215.8,72.3c-0.1-0.5-0.1-0.9-0.2-1.4c1.5-1.2,3.2-2.2,5.7-2.5c-1.5,1.2-2.4,2.1-3.4,2.9c0,0,0,0,0,0
		C217.2,71.7,216.5,72,215.8,72.3z"/>
	<path class="st8" d="M209,116.5c0.2-0.2,0.5-0.5,0.7-0.7c1.4,1.1,2.8,2.2,4.1,3.3c-0.2,0.2-0.3,0.3-0.4,0.5
		C211.7,118.9,210.3,117.8,209,116.5z"/>
	<path class="st8" d="M207.4,110.5c0.3-0.2,0.5-0.5,0.8-0.7c1.4,1.1,2.8,2.2,4.2,3.3c-0.2,0.2-0.3,0.4-0.5,0.5
		C210.2,113,208.7,111.8,207.4,110.5z"/>
	<path class="st10" d="M239.7,76.8c-1,0-1.4-0.6-1.5-1.5c0,0,0,0,0,0C239.2,75.3,239.7,75.8,239.7,76.8
		C239.8,76.7,239.7,76.8,239.7,76.8z"/>
	<path class="st8" d="M130,110.5c-0.4,0-0.8,0-1.2,0c0.1-0.7-0.6-1.9,0.8-1.8C130.3,108.7,130.1,109.8,130,110.5z"/>
	<path class="st7" d="M212.5,179.8c0.3,0.4,0.7,0.8,1,1.2l0.1,0c-0.8,0.5-1.2,0-1.7-0.6C212.1,180.2,212.3,180,212.5,179.8z"/>
	<path class="st8" d="M212.4,113.1c0.4,0.4,0.8,0.8,1.2,1.1c-0.1,0.1-0.3,0.2-0.4,0.4c-0.4-0.3-0.8-0.6-1.3-1
		C212,113.4,212.2,113.3,212.4,113.1z"/>
	<path class="st8" d="M213.9,119.1c0.4,0.4,0.8,0.8,1.2,1.2c0,0-0.2,0.2-0.2,0.2c-0.6,0-1.1-0.2-1.4-0.8
		C213.6,119.4,213.7,119.2,213.9,119.1z"/>
	<path class="st10" d="M250.1,93.9c0,0.1-0.1,0.2-0.1,0.3c-0.1-0.1-0.2-0.2-0.3-0.3c0,0,0.1-0.1,0.2-0.2
		C250,93.8,250,93.8,250.1,93.9z"/>
	<path class="st10" d="M236.8,73.7c-0.2-0.3-0.4-0.5-0.6-0.8C237.1,72.7,236.6,73.5,236.8,73.7C236.7,73.8,236.8,73.7,236.8,73.7z"
		/>
	<path class="st9" d="M204.5,182.5c0.7,0.2,0.9,0.6,0.5,1.3c-0.3-0.3-0.7-0.5-1-0.8C204.2,182.8,204.3,182.6,204.5,182.5z"/>
	<path class="st10" d="M228.3,76c0,0.1-0.1,0.2-0.1,0.3c-0.1-0.1-0.2-0.2-0.3-0.3c0,0,0.1-0.1,0.2-0.2
		C228.2,75.8,228.3,75.9,228.3,76z"/>
	<path class="st10" d="M240.5,78.3c-0.6-0.3-0.8-0.9-0.7-1.5c0,0,0,0,0,0C240.4,77,240.5,77.6,240.5,78.3
		C240.5,78.2,240.5,78.3,240.5,78.3z"/>
	<path class="st10" d="M237.5,74.5c0.3,0.2,0.5,0.5,0.8,0.7c0,0,0,0,0,0C238,75,237.8,74.7,237.5,74.5
		C237.5,74.5,237.5,74.5,237.5,74.5z"/>
	<path class="st10" d="M236.7,73.8c0.3,0.2,0.5,0.5,0.8,0.7c0,0,0,0,0,0C237.3,74.2,237,74,236.7,73.8
		C236.8,73.7,236.7,73.8,236.7,73.8z"/>
	<path class="st8" d="M215,73c0.3-0.2,0.6-0.5,0.8-0.7C215.6,72.5,215.3,72.8,215,73z"/>
	<path class="st8" d="M215,120.2c0.3,0,0.8,0.2,0.4,0.6c-0.3,0.3-0.6,0-0.6-0.4C214.8,120.4,215,120.2,215,120.2z"/>
	<path class="st2" d="M222.2,171.5c-0.3-0.2-0.6-0.3-0.9-0.5c0.2-0.2,0.4-0.4,0.5-0.6c0.2,0.3,0.5,0.5,0.7,0.8
		C222.5,171.3,222.4,171.4,222.2,171.5z"/>
	<path class="st2" d="M228.6,162.9c0.2,0.2,0.6,0.6,0.6,0.6c-0.4,0.6-0.7,0.1-1-0.2C228.3,163.2,228.5,163,228.6,162.9z"/>
	<path class="st9" d="M200.4,187c-0.7,0.1-1.3,0.3-1.1-0.8C199.8,186.1,200.1,186.5,200.4,187z"/>
	<path class="st8" d="M213.6,114.2c0.2,0.2,0.6,0.5,0.6,0.6c-0.4,0.6-0.7,0.1-1-0.2C213.3,114.4,213.4,114.3,213.6,114.2z"/>
	<path class="st8" d="M116.6,98.1c0,0.1-0.1,0.1-0.1,0.2c-0.1-0.1-0.2-0.1-0.3-0.2c0.1-0.1,0.2-0.2,0.2-0.2
		C116.4,97.9,116.5,98,116.6,98.1z"/>
	<path class="st2" d="M222.6,171.1c0.2,0.2,0.6,0.6,0.6,0.6c-0.4,0.6-0.7,0.1-1-0.2C222.4,171.4,222.5,171.3,222.6,171.1z"/>
	<path class="st7" d="M213.5,181c0.1,0.1,0.3,0.3,0.4,0.4C213.5,181.5,213.3,181.4,213.5,181C213.6,181,213.5,181,213.5,181z"/>
	<path class="st9" d="M125.1,39.1c2.7-4.1,6.6-6.8,10.8-9.4C132.7,33.3,129.6,36.9,125.1,39.1z"/>
	<path class="st9" d="M130.3,46.5c-1.3,2.2-3.4,3.7-5.2,5.4c-0.5,0.5-1.1,1.2-1.9,0.3c-0.6-0.7-0.2-1.5,0.4-1.9
		c1.9-1.5,3.9-3,5.9-4.5C129.8,46.1,130,46.3,130.3,46.5z"/>
	<path class="st9" d="M131.4,39.7c-1.5,2.5-3.9,4.1-5.9,6.1c-0.4,0.4-1,1-1.6,0.5c-0.7-0.6-0.4-1.4,0.2-1.9c2.2-1.7,4.5-3.4,6.8-5.1
		C131,39.3,131.2,39.5,131.4,39.7z"/>
	<path class="st9" d="M130.9,39.1c0.3-0.4,0.8-0.8,1.1-0.4c0.4,0.5-0.3,0.6-0.7,0.9C131.2,39.5,131,39.3,130.9,39.1z"/>
	<path class="st10" d="M88.2,120.4c0.7-1.5-1.4-3.6,0.3-4.4c3.5-1.5,7.2-2.9,11.1-2.3c3.3,0.5,6.1,2,8.5,4.3
		c5.1,5.1,8.5,11.3,10.9,18.1c-0.5,0-1.3-0.2-1.2,0.3c0.1,2.3,0.4,4.6,0.7,6.8c0,0.1,0.8,0.1,1.3,0.2c-0.9,1.4-0.1,3.3-1.3,4.6
		c-2.3-1.7-2.6,2.4-4.7,1.5c-0.8-1.1-1.8-0.4-2.7-0.4c-5.8-0.2-11.1-1.6-15.6-5.5c-0.6-0.6-1.3-1.2-1.9-1.8
		c-0.6-1.4-1.2-2.9-1.8-4.3c1.2-0.1,2.8,0.6,2.5-1.7c-0.1-0.8,0-1.7,0.9-2.2c-0.1,2.9-0.8,6,1.4,8.5c2.2,2.4,4.8,3.7,8.3,2.8
		c4.1-1.1,6.1-4,6.7-8c0.8-2.2-1-2.6-2.3-3.3l0,0.1c-1-1.6-2.5-2.7-4-3.8C99.8,126.4,93.9,123.6,88.2,120.4z"/>
	<path class="st2" d="M130.3,175.6c-3.5-5.2-4.9-5.3-8.7-0.4c-0.5,0.7-0.8,1.6-1.9,1.4c-0.5-1.8,0.7-3.1,1.6-4.2
		c1.3-1.5,2.2-3.1,2.9-4.9c0.2-0.4,0.4-0.8,0.5-1.2c1-2.1,1.7-4.3,1.9-7.3c-1.8,1.4-2.9,2.3-4,3.2c-0.5,0.1-0.9,0.3-1.4,0.4
		c-1.7,0.3-3.8,2.7-4.8,1c-0.7-1.2,2.5-1.6,3.9-2.7c1.9-1.5,4-2.9,6.1-4.2c1-0.7,0.7-1.5,0.5-2.3c-0.9-4.6-2.7-9.2-0.1-13.8
		c0.5-0.9-0.4-1.2-1.1-1.6c-2.8-1.3-4.2-3.7-5.6-6.3c-3.9-7.1-8.3-13.9-14.2-19.8c2.1-1.1,2.7,0.4,3.4,1.1c5.6,5.5,9.8,12,13.3,18.9
		c0.2,0.4,0.4,0.9,0.6,1.4c0.8,2,2.7,3.6,4.4,3.4c1.5-0.1,1.4-2.8,1.8-4.5c0.1-0.5-1.2-2.7,1.3-1.7c0.2,3.6,0,7-2.2,10.1
		c-1.5,2.1-0.8,4.6-0.6,6.9c0.3,2.6,0.9,5.1,1.4,7.7c0.1,0.4,0.3,1.1,0.6,1.2c5.6,1.1,7.4,6.3,10.4,10.1c1.7,2.1,3.1,4.5,4.7,6.7
		c0,0,0-0.1,0-0.1c-1.2,0.3-2-0.6-3-1c-0.1-0.2-0.3-0.4-0.4-0.6c-0.7-0.9-1-2.1-2.3-2.5l-0.3,0l0.3,0c-0.1-1.3-0.9-2.1-1.8-2.8
		c-0.5-0.7-1-1.4-1.6-2.1c-0.6-0.9-1.2-1.9-1.9-2.7c-2.7-3.1-2.7-2.7-5.5,0.3c-1.4,1.5,0.8,1.4,0.2,2.4c-1.7,2.6-1.3,4.1,0.9,5.4
		c1.8,3.3,4.9,5.7,5.7,9.6C133.3,179.3,132.2,177,130.3,175.6z"/>
	<path class="st8" d="M113.7,149.5c2,0.9,2.4-3.2,4.7-1.5c-3.9,7.3-15.8,9.7-23.6,4.7c-8.8-5.6-13.4-19.9-9.4-29.5
		c0.3-0.6,0.2-2,1.6-1.2c0.8,0.6,2.2,0.5,2.4,1.8c-0.7,0.2-1.3,0.5-1.4,1.3c-1.8-1.7-1.7,0.4-1.8,1.1c-0.8,6-0.8,11.9,2.3,17.4
		c5,9,14.5,12.2,23.9,7.9c0.5-0.2,1.9-0.1,1.2-1.5C113.7,149.9,113.7,149.7,113.7,149.5z"/>
	<path class="st15" d="M118.3,190.7c7.4,2.4,15.1,1.8,22.6,1.4c4.1-0.2,4.1,1.1,3.2,4c0,0-0.3-0.2-0.3-0.2c-0.3-1.6-1.3-2.5-2.9-2
		c-6.6,1.8-13.2,0.8-19.9,0c-0.4-0.1-0.8-0.2-1.1-0.2c-1.6,0.1-4-4.1-4.8,0.8c-0.8,0.9-1.5,1.9-2.8,0.7c1.9-0.6,1.2-1.7,0.8-3
		c-0.7-2.1,0.5-2.3,2.1-2.2C116.2,190.6,117.2,190.9,118.3,190.7z"/>
	<path class="st6" d="M89.5,123.8c-0.3-1.3-1.6-1.2-2.4-1.8c0.4-0.5,0.8-1.1,1.2-1.6c5.7,3.2,11.6,6,17,9.7c1.5,1,3,2.2,4,3.8
		c-0.7,0-1.5-0.1-2.2-0.1l0,0c-2.2-2.4-4.9-4-7.8-5.4c-2-1.3-4.1-2.3-6.5-2.8l-0.1-0.1c-0.4-1.2-1.1-1.7-2.4-1.3
		C90,124.1,89.7,124,89.5,123.8z"/>
	<path class="st10" d="M118.3,190.7c-1.1,0.2-2.1-0.1-3-0.7c0-3.3-1.9-6.2-2.4-9.4c-0.1-0.9-1.2-2-0.4-2.8c1-0.9,2,0.3,3.1,0.4
		c0.6,0.1,1.2,0.3,1.8,0.5c0,0.5,0.3,0.7,0.8,0.8c0,0.7-3,1.5,0,2.2c0.1,0.4,0.2,0.8,0.3,1.2C116.6,185.5,119.1,188.2,118.3,190.7z"
		/>
	<path class="st10" d="M125,124.8c0,0.5,0.1,1.1,0.7,1.1c0.7,0.1,0.7-0.5,0.8-1c1.5-0.2,2.4,0.3,2.4,1.9c-0.4,1.9-1.1,4.9-2.4,4.8
		c-2.3-0.1-2.9-3-3.5-5c-0.6-1.9-1.1-3.8-1.6-5.7C123.2,121.5,122.7,124.5,125,124.8z"/>
	<path class="st10" d="M122.5,145c0.2,0.8,0.5,1.6,0.7,2.5c1.1,4.8,0.6,5.7-4,7.4c-2,0.7-4,1.5-6,2.1c-0.3,0.1-0.7-0.1-1.7-0.2
		C117.1,154.1,122.6,152,122.5,145z"/>
	<path class="st10" d="M105.1,170.2c3.1-1.7,5.9-3.5,8.3-5.8c1.3,4.8,1.3,4.9-3.6,5.3C108.4,169.8,107,170.9,105.1,170.2z"/>
	<path class="st10" d="M124.8,166.3c-0.2,0.4-0.4,0.8-0.5,1.2c-2.4-0.5-4.3,0.7-6.4,2.6c0.2-3.4,4.3-4.3,3.5-7.4
		c0.5-0.1,0.9-0.3,1.4-0.4C124,163.3,121.5,166.3,124.8,166.3z"/>
	<path class="st10" d="M88.8,108.7c1.9-0.6,2.8-0.8,3.7-1.2c0.2-0.1,1.8,0.4,0.6-0.8c-0.7-0.7-1.2-1,0.1-1.4c0.9-0.2,1.7,0,2.3,0.9
		c0.5,0.8,0.4,1.5-0.5,1.8C93.3,108.8,91.6,109.3,88.8,108.7z"/>
	<path class="st2" d="M119.7,143.4c-0.4-0.1-1.2-0.1-1.3-0.2c-0.3-2.3-0.6-4.5-0.7-6.8c0-0.6,0.8-0.3,1.2-0.3
		C119.5,138.5,119.9,140.9,119.7,143.4z"/>
	<path class="st8" d="M95.9,107c3.7-0.6,5.8,0.6,7.3,3.3C101.1,109.3,98.9,108.3,95.9,107z"/>
	<path class="st10" d="M108.4,157.3c0.6-0.4,1.4-0.5,1.6,0c0.2,0.5-0.6,0.4-1,0.4C108.8,157.7,108.6,157.5,108.4,157.3z"/>
	<path class="st2" d="M118.3,179.5c-0.5-0.1-0.7-0.3-0.8-0.8c0.6-0.1,0.6-1.4,1.5-0.8C118.8,178.5,118.5,179,118.3,179.5z"/>
	<path class="st2" d="M119.8,176.5c0.2,0.8,0.2,1.4-0.8,1.6C118.3,177.1,118.7,176.6,119.8,176.5z"/>
	<path class="st10" d="M115,173.7c-0.1,0-0.2-0.1-0.2-0.1c0-0.1,0.1-0.2,0.1-0.3c0.1,0,0.2,0.1,0.2,0.1
		C115,173.5,115,173.6,115,173.7z"/>
	<path class="st2" d="M105.6,175.7c0.3,0.1,0.7,0.2,0.4,0.6c-0.1,0.1-0.6,0-0.9-0.1C105.2,176,105.4,175.9,105.6,175.7z"/>
	<path class="st10" d="M86.8,110.5c-0.3,0.2-0.5,0.5-0.8,0.7l0,0C86.3,111,86.5,110.8,86.8,110.5L86.8,110.5z"/>
	<path class="st10" d="M86,111.2c-0.3,0.2-0.5,0.5-0.8,0.7l0,0C85.5,111.8,85.8,111.5,86,111.2C86,111.3,86,111.2,86,111.2z"/>
	<path class="st2" d="M104.1,110.1c0.1-0.1,0.2-0.2,0.2-0.3c0.1,0.2,0.2,0.3,0.2,0.5c0,0.1-0.1,0.2-0.2,0.2
		C104.3,110.4,104.2,110.2,104.1,110.1z"/>
	<path class="st10" d="M86.7,110.5c0.2-0.3,0.5-0.5,0.7-0.8l0,0C87.3,110,87,110.3,86.7,110.5L86.7,110.5z"/>
	<path class="st10" d="M87.5,109.7c0.1-0.1,0.2-0.2,0.3-0.3c0,0.1,0,0.2-0.1,0.2C87.7,109.7,87.6,109.7,87.5,109.7
		C87.5,109.8,87.5,109.7,87.5,109.7z"/>
	<path class="st10" d="M85.2,112c-0.1,0.1-0.1,0.2-0.2,0.3C85.1,112.2,85.2,112.1,85.2,112C85.3,112,85.2,112,85.2,112z"/>
	<path class="st9" d="M87.5,186.2c0,2.5,2.6,3.5,3.3,5.8c-1.4,0.4-2.8,0.8-3.7-0.6c-2.2-3.7-5.4-6.8-7.2-10.9c0.8-1.1,0-2.2,0.2-3.4
		c2.6,0.5,3.8,2.6,5.3,4.5c-0.2,0.2-0.4,0.4-0.6,0.6c-0.1,0-0.2-0.1-0.3-0.1c-0.1,0-0.3,0-0.3,0c0.2,1.7,1.2,2.7,2.6,3.4l0,0
		C86.8,186,87,186.3,87.5,186.2L87.5,186.2z"/>
	<path class="st2" d="M80.1,177.1c-0.2,1.1,0.7,2.3-0.2,3.4c-3.8-5.8-7.8-11.5-9.9-18.2c0.1-0.4,0.1-0.7,0.2-1.1
		C73.7,166.3,77.7,171.2,80.1,177.1z"/>
	<path class="st9" d="M89.8,187c-1,0.3-1.5-0.6-2.3-0.8c0,0,0,0,0,0c0-0.5-0.3-0.7-0.8-0.8l0,0c-0.1-0.4-0.2-0.9-0.3-1.3
		c0.2-0.2,0.4-0.3,0.6-0.5C88.4,184.5,89.7,185.3,89.8,187z"/>
	<path class="st9" d="M92.8,190.8c-1.5-0.9-2.8-1.9-3-3.8C91.5,187.6,92.7,188.8,92.8,190.8z"/>
	<path class="st9" d="M94.5,191.5c-1.3,1.5-1.6,0.5-1.7-0.8C93.6,190.4,94,191.1,94.5,191.5z"/>
	<path class="st9" d="M85.4,181.6c0.8,0.5,1.4,1.2,1.7,2.1c-0.2,0.2-0.4,0.3-0.6,0.5c-0.6-0.7-1.1-1.3-1.7-2
		C85,182,85.2,181.8,85.4,181.6z"/>
	<path class="st14" d="M119.9,193.7c0.4,0.1,0.8,0.2,1.1,0.2c2.2,2.3,5.1,1.8,7.8,2c3.7,0.3,7.4,0.1,11.2,0.1
		c-0.8,0.9-1.8,1.4-2.9,1.4c-7.2,0.1-14.6,1.1-21.2-2.9C117,193.1,118.6,194.1,119.9,193.7z"/>
	<path class="st7" d="M164.4,201.7c-11.2,0-22.4,0.1-33.7,0.1c-1.1,0-2.3,0.4-3.2-0.5c10.7,0,21.4,0,32,0
		C161.2,201.3,162.8,201.6,164.4,201.7z"/>
	<path class="st13" d="M140,196c-3.7,0-7.5,0.2-11.2-0.1c-2.6-0.2-5.6,0.3-7.8-2c6.6,0.8,13.2,1.8,19.9,0c1.6-0.4,2.6,0.4,2.9,2
		c-0.4-0.2-0.8-0.3-1.3-0.5C141.6,195.1,140.8,195.6,140,196z"/>
	<path class="st7" d="M160,196.5c4.7,0.3,9.5,0.7,14.2,1c1.1,0.1,2.2-0.2,3.1,0.7C171.6,197.8,165.7,198,160,196.5z"/>
	<path class="st7" d="M142.6,195.5c0.4,0.2,0.8,0.3,1.3,0.5c0,0,0.3,0.2,0.3,0.2c4.5,0,9,0.1,13.5,0.1c-4.5,0.7-9.1,0.3-13.6,0.2
		C143.3,196.4,142.8,196.2,142.6,195.5z"/>
	<path class="st13" d="M119.9,193.7c-1.3,0.4-2.9-0.5-4.1,0.9c-0.2,0-0.5,0-0.7,0C115.9,189.6,118.3,193.8,119.9,193.7z"/>
	<path class="st11" d="M203,136.2c0,0.4,0,0.8,0,1.2c-2.9-0.2-3.4,1.1-3,3.8c0.9,5.8,0.5,11.6-1.5,17.2c-0.4,0-0.9,0-1.3,0
		c1.7-6.3,1.8-7.4,0.8-10.5c-3.8,11.3-12.4,18.8-19.8,27.8c1.4-0.3,2.3-0.4,3.1-0.5c0,0.4,0,0.8,0,1.2c-3.5-0.2-6.3,1.3-8.5,3.9
		c-2.8,3.3-5.4,2.9-8.5,0.3c-3.7-3-6.5-6.9-10-10.1c0.1-1.2-0.1-2.2-1.1-2.9c-0.9-1.6-1.9-3.2-2.8-4.8c-2.5-4.1-3-9.1-5.8-13
		c0-0.5,0-1.1,0-1.6c0.1-2.8-0.9-5.5-1.4-8.2c-0.2-1-0.7-1.6-1.8-1.1c0-0.1-0.1-0.2-0.2-0.3c0.3-0.5,0.6-1,0.9-1.4
		c0.3-0.3,0.5-0.6,0.8-0.9c0.9,0.3,1.6,0,2.4-0.5c6.3-3.9,13.1-6.9,20.1-9.5c0,0.5,0,1.1,0,1.6c-0.1,0.1-0.2,0.1-0.3,0.2
		c-0.3,0.1-0.7,0.2-0.2,0.6c0.2,0.1,0.5,0.1,0.7,0.1c10-0.7,19.6,0.7,28.6,5.4C197,135.3,199.8,136.5,203,136.2z M163.3,141.9
		c-0.9,0.2-2.1-0.9-2.6,0.7c-0.2,0.6-0.2,1.4,0.6,1.5c2.9,0.2,2,2.3,2,3.8c-0.1,2.1-0.4,4.2-0.7,6.3c-0.2,1.4,0.2,3.1-2.2,3
		c-1.1-0.1-1.3,1.1-1.3,1.9c0,1.1,1.1,0.8,1.7,0.8c2.2,0,3.3,0.6,2.7,3.1c-0.2,0.8,0,1.4,1.1,1.5c1.1,0,1-0.8,1.2-1.5
		c0.2-0.9-0.1-2.3,1.4-2.2c1.5,0.2,0.7,1.6,0.8,2.4c0.1,0.7-0.1,1.5,1,1.7c1.1,0.2,1.3-0.6,1.3-1.3c-0.2-2.7,1.8-2.4,3.4-2.7
		c4.8-0.8,6.4-5,3.3-8.7c-0.7-0.9-0.6-1.1-0.1-2c2-3.3,1.2-5.3-2.4-6.9c-1.2-0.5-2.3-0.9-1.7-2.6c0.3-0.8,0.5-1.8-0.8-2
		c-1.2-0.2-1.5,0.5-1.6,1.5c-0.1,0.8,0.2,2-1.1,1.9c-1.4-0.1-0.7-1.3-0.7-2.1c0-0.8,0.4-1.8-1-1.9c-1.3-0.1-1.5,0.9-1.5,1.7
		C165.7,141.8,165,142.4,163.3,141.9z"/>
	<path class="st10" d="M165.4,126c-7,2.6-13.8,5.6-20.1,9.5c-0.8,0.5-1.5,0.7-2.4,0.5c-1.3-2.3-4.3-3.2-5.1-6
		c1.6-0.1,3.3-0.3,4.9-0.4c0.2,0.7,0.4,1.4,0.7,2.1c0.3,0.7,0.1,2,1.4,1.7c0.7-0.2,1.6-0.5,1.9-1.1c0.7-1.3-1.3-0.7-1.4-1.6
		c0-0.5-0.1-1-0.2-1.5c12-4.2,23.8-9.1,36.4-11.1c1.6-0.2,3.2-0.1,4.8-0.2c0.1,1.4,1,1.5,2.1,1.5c5.6,0.1,10.5,2.3,14.7,5.6
		c2.7,2.1,6.2,3.8,6.4,8.1c-4.7-4.7-9.7-8.9-16.3-10.5C183.6,120.1,174.4,122.4,165.4,126z"/>
	<path class="st13" d="M139.5,135.1c-2.5,0.3-4.4,0-3.9-3.3C136.9,132.9,138.2,134,139.5,135.1z"/>
	<path class="st6" d="M89.7,263.6c-0.8,2.7-1.7,5.3-3.5,7.5c0,0-0.2-0.1-0.2-0.1c0-1.2,0.1-2.5,0.1-3.7c0,0,0,0,0,0
		c0.2-0.2,0.4-0.5,0.7-0.7c0.5-0.8,1-1.6,1.5-2.4C88.7,263.9,89.2,263.8,89.7,263.6z"/>
	<path class="st0" d="M86.7,266.5c-0.2,0.2-0.4,0.5-0.7,0.7C86.3,267,86.5,266.8,86.7,266.5z"/>
	<path class="st4" d="M94.3,254.5c1.7,3.4,0.4,5.6-3,6.8C92.1,258.9,92.6,256.4,94.3,254.5z"/>
	<path class="st4" d="M91.2,261.3c0,0.6-0.1,1.1-0.7,1.4C90.5,262.1,90.7,261.6,91.2,261.3z"/>
	<path class="st2" d="M93.4,268.7c1.9-4.6,4.8-8.9,5-14c0.1-2.1,1.8-5.1-1.9-6.3c-0.1-0.4-0.2-0.9-0.3-1.3c1.6-0.1,1.7-2.2,3.2-2.5
		c0,6.9,0.8,13.8-2.8,20.2C95.8,266.5,95.1,267.9,93.4,268.7z"/>
	<path class="st8" d="M153.2,167.5c1,0.7,1.2,1.8,1.1,2.9c-6.1-3.2-10.5-8.2-14.2-13.8c-1.1-1.7-0.9-3.5,0.7-5
		c1.3-1.2,2.5-2.4,3.8-3.6c0,0.5,0,1.1,0,1.6c-0.9,1.1-1.9,2.3-2.8,3.4c-0.5,0.7-1.8,1.4-0.9,2.5
		C144.4,160.1,147.4,165.3,153.2,167.5z"/>
	<path class="st10" d="M130.3,175.6c1.9,1.4,3,3.7,5.2,4.7c0.5,0,1,0,1.4,0c0,0.3,0,0.5,0,0.8c-0.6,0.2-0.5,0.5,0,0.7l0,0
		c0.6,1.1,1.1,2.2,1.7,3.4c0.6,1.2,0.9,2.4,0.2,3.6c-0.5,0.9-1.8,0.9-2.4,0.4c-1.1-0.8-2.4-1.9-2.2-3.4c0.1-1,0.7-1.9-0.6-2.5
		c0-2.6-2.6-3.7-3.5-5.7C130.3,176.8,130.3,176.2,130.3,175.6z"/>
	<path class="st13" d="M224.6,147.3c2.7,6.6-0.3,11.7-4.3,16.6c-0.4-3.7,1.9-6.6,2.7-10c0.6-2.7,1.1-4.8-2.3-5.7
		c-0.7-0.2-1.3-0.7-1.1-1.7C221.4,146.2,222.7,148.7,224.6,147.3z"/>
	<path class="st10" d="M211.2,141.7c2.3,3.9,0.5,7.5-0.9,11c-0.8,2.2-1.7,4.4-3.4,6.1c-1.3-2.9,0.6-5.3,1.4-7.7
		C209.3,147.9,208.8,144.3,211.2,141.7z"/>
	<path class="st2" d="M142.2,182.6c-1-0.3-1.9-0.6-2.9-0.9c-0.1-0.3-0.1-0.7-0.2-1c5.3,0.5,10.7,1,16,1.5c0.2-0.1,0.4-0.3,0.6-0.4
		l0,0c0.4,1.2,1.5,0.4,2.2,0.7c0.3,0.2,0.5,0.4,0.8,0.7c-3.4,1.8-7,0.5-10.5,0.4C146.2,183.2,144.2,182.9,142.2,182.6z"/>
	<path class="st10" d="M175.8,188.5c-7.2,3.4-16.5,3.1-19.2-1C163,189.5,169,188.4,175.8,188.5z"/>
	<path class="st2" d="M130.2,177.4c1,2,3.5,3.1,3.5,5.7c-0.6,0.5-1.1,1-1.7,1.4c-0.9,0.6-1.9,1.6-3,1c-1.2-0.6-1-2-0.6-3
		C129.2,180.9,127.5,178.4,130.2,177.4z"/>
	<path class="st2" d="M118.6,183c-0.1-0.4-0.2-0.8-0.3-1.2c1.2-1.8,2.7-3.4,5-5.1c0.2,2.4,0.4,4.1,0.4,5.8c0,1,0.5,2.4-0.7,3
		c-1.2,0.6-2.1-0.5-2.9-1.2C119.5,183.9,119.1,183.4,118.6,183z"/>
	<path class="st10" d="M142.2,182.6c2,0.3,4,0.6,6,0.8c0.3,0.4,0.5,0.9,0.8,1.2c1.1,1,3.8,1.3,2.5,3.2c-1.1,1.6-2.9-0.3-4.2-1
		C145.5,185.8,142.9,185.3,142.2,182.6z"/>
	<path class="st8" d="M158.7,183.1c-0.3-0.2-0.5-0.4-0.8-0.7c-0.5-0.9-1.3-0.9-2.2-0.7c0,0,0,0,0,0c0.3-0.8-0.3-0.6-0.7-0.7
		c-3-1.2-5.7-3.2-9-3.9c-0.2-1-0.5-2-0.7-3c0,0,0,0.1,0,0.1c4.7,2.5,9.3,4.9,14,7.4c0.5,0.3,1.3,0.4,0.8,1.2
		C159.9,183.2,159.2,183.1,158.7,183.1z"/>
	<path class="st10" d="M135.4,151.3c-0.2,0.5,0.6,2.6-0.8,2.2c-1.8-0.5-4-1.7-3.6-4.4c0.1-1-0.4-2.6,1.4-2.4
		C134.6,147,136,148.3,135.4,151.3z"/>
	<path class="st10" d="M141.4,142.7c-3.1,4-5.4,4.4-8.4,2c-0.5-0.4-1.1-0.8-0.7-1.5c0.2-0.3,0.8-0.5,1.2-0.6
		C135.9,142.7,138.3,142.7,141.4,142.7z"/>
	<path class="st8" d="M181.2,176.4c0-0.4,0-0.8,0-1.2c4.2-1.3,7.8-3.5,10.8-6.7c0.2,0.2,0.4,0.4,0.7,0.6
		C189.9,173.2,186.2,175.8,181.2,176.4z"/>
	<path class="st7" d="M190.9,183.3c0.5,0.4,1.1,0.8,1.6,1.2c-3.4,0.6-6.7,1.1-10.3,1.7c0.7-1.3,2.3-0.9,2.7-2.1
		C186.9,183.2,188.9,183,190.9,183.3z"/>
	<path class="st8" d="M197.1,158.5c0.4,0,0.9,0,1.3,0c-1.1,4-3,7.6-5.8,10.7c-0.2-0.2-0.4-0.4-0.7-0.6
		C194.3,165.5,195.6,161.9,197.1,158.5z"/>
	<path class="st13" d="M217.3,146.5c0.2-1-0.2-1.7-1.1-1.9c-1.9-0.4-1.9-1.8-1.9-3.3c2.2,0.2,3.7,1.6,5.3,2.9c0,0,0,0.1,0,0.1
		c-1.1,0-1,0.7-0.8,1.5C218.8,146.9,218.4,147.5,217.3,146.5z"/>
	<path class="st7" d="M180.5,180.3c0,0.4,0,0.9,0,1.3c-2.1,0.4-4.2,1.3-7.4,0.5C176.1,181.4,178.3,180.8,180.5,180.3z"/>
	<path class="st13" d="M139.1,180.7c0.1,0.3,0.1,0.7,0.2,1c-0.8,0-1.5,0-2.3,0c0,0,0,0,0,0c0-0.2,0-0.5,0-0.7c0-0.3,0-0.5,0-0.8
		c0,0,0,0,0,0c0.3,0,0.5,0,0.8,0C138.2,180.4,138.7,180.6,139.1,180.7z"/>
	<path class="st13" d="M213.3,139.1c-1-1.4-0.2-1.4,1-1.3C214.2,138.4,213.9,138.9,213.3,139.1z"/>
	<path class="st13" d="M221,145c0.3,0.1,0.6,0.2,1,0.3c-0.1,0.1-0.1,0.2-0.2,0.3C221.5,145.4,221.3,145.2,221,145L221,145z"/>
	<path class="st13" d="M221,145c-0.6,0-1.2-0.2-1.5-0.7c0,0,0-0.1,0-0.1C220.1,144.3,220.7,144.4,221,145C221,145,221,145,221,145z"
		/>
	<path class="st13" d="M141.2,138.4c0.1,0.1,0.1,0.2,0.2,0.3c-0.5,0-0.9,0-1.4,0C140.2,138.2,140.7,138.4,141.2,138.4z"/>
	<path class="st9" d="M174.4,237.8c-1.3-0.5-2.5-1-3.8-1.4c5.2-2.1,10.9-2.6,16.2-4.2c2.4-0.7,4.8-1.2,8.1-2.1
		c-4.8-0.8-9.3,0.9-11.9-3.6c0-0.1-1.3,0.5-1.9,0.8c-1.7,0.7-3,2.3-5.1,1.9c0.3-0.5,0.5-1,0.8-1.5c0.6,0,1.2-0.1,1.5-0.7
		c0.5-0.1,1-0.2,1.6-0.4c-0.1-0.1-0.1-0.2-0.2-0.3c-0.6-0.2-1.1,0-1.4,0.6c-0.5,0.3-1,0.5-1.5,0.8c-0.7,0-1.3,0-2,0.1
		c5-3.7,10.9-5.8,16-9.3c2.6-1.7,5.3-3.2,7.9-5c0.9-0.6,2.9-1,0.9-3.2c-1.1-1.2,1.1-2.8,2.7-3.6c0.3,1-0.4,1.6-1,2.2
		c-0.8,0.9-0.1,1.2,0.6,1.5c2.6,0-0.2,2.2,1.2,2.7c-3.8,4-8.9,6.2-13.3,9.5c-1.6,1.2-4.7,2.4-4.2,4.2c0.7,2.2,3.8,1.7,6,1.5
		c9.1-0.6,17.4-4,25.7-7.4c3.8-1.6,7.5-3.1,11.3-4.7c-0.1,1.9-1.6,2.5-3.1,3.2c-1.1,0.5-2.4,0.8-1.5,2.5
		c-8.8,4.6-17.8,8.4-27.6,10.5c-0.1-0.1-0.2-0.2-0.3-0.3c0-0.2,0-0.5,0-0.7c0.7-0.1,1.5,0.1,1.9-0.6c0.1-0.1-0.2-0.7-0.4-0.8
		c-1.1-0.3-1.5,0.4-1.5,1.3c-1.6,0-3.2,0.1-4.7,1.5c1,0,1.7,0,2.4,0c0.1,0.1,0.2,0.2,0.3,0.3C187.8,235.4,181.2,236.9,174.4,237.8z"
		/>
	<path class="st2" d="M203.1,212.9c-1.4-0.5,1.4-2.8-1.2-2.7c8.3-4.2,15.1-10.4,22-16.5c0.4,0.1,0.8,0.1,1.2,0.2
		C218.4,200.9,211.2,207.5,203.1,212.9z"/>
	<path class="st9" d="M239.8,210.2c1.8,1,3.2,1.9,0.3,3.3c-1.5,0.8-2.8,2.1-4.6,2.1c-1.4-1.7-2.8-0.6-3.7,0.5
		c-1.5,1.8-1.2-0.4-1.8-0.6C233,213.4,235.9,210.9,239.8,210.2z"/>
	<path class="st11" d="M230,215.5c0.6,0.2,0.3,2.4,1.8,0.6c0.9-1.1,2.2-2.1,3.7-0.5c-2.7,2.7-6.4,3.6-9.6,5.3
		c-0.3,0.2-0.7,0.4-1,0.6c-0.2,0.1-0.5,0.2-0.7,0.3c-0.9-1.7,0.4-2,1.5-2.5c1.4-0.7,2.9-1.2,3.1-3.2
		C229.1,215.9,229.5,215.7,230,215.5z"/>
	<path class="st9" d="M225.1,193.9c-0.4-0.1-0.8-0.1-1.2-0.2c2.1-2.4,4.1-5,6.7-6.9c0.2,0.2,0.3,0.3,0.5,0.5
		C229.3,189.7,227.8,192.3,225.1,193.9z"/>
	<path class="st9" d="M202.2,206.5c0.4-2.1,2-3,3.8-3.8C205.6,204.8,204.4,206.2,202.2,206.5z"/>
	<path class="st9" d="M230.6,186.8c0.3-0.4,0.7-0.7,1.2-0.2c-0.2,0.2-0.5,0.5-0.7,0.7C230.9,187.2,230.7,187,230.6,186.8z"/>
	<path class="st7" d="M194,187.2c0.2-0.7,0.9-0.9,1.5-1c0.1,0.5,0.3,1.2-0.4,1.5C194.6,187.9,194.2,187.7,194,187.2z"/>
	<path class="st2" d="M87.7,274.8c1.9-2,3.9-4,5.8-6.1c-0.4,1.3-0.8,2.6-1.3,4c0,0,0,0,0,0c-0.3,0.2-0.6,0.4-0.9,0.6
		C90.2,274.1,89.2,275,87.7,274.8z"/>
	<path class="st1" d="M91.2,273.3c0.3-0.2,0.6-0.4,0.9-0.6C91.9,272.9,91.5,273.1,91.2,273.3z"/>
	<path class="st13" d="M131,207.4c-0.1,2.8-2,3.1-4.1,2.6c-1.4-0.3-2.8-0.8-4.2-1.3c-0.3-0.7-0.5-1.4-0.8-2.2c0.8,0,1.5,0,2.3-0.1
		C126.5,206.8,128.7,207.1,131,207.4z"/>
	<path class="st10" d="M124.8,226.5c3.5-0.2,7-1.3,10.3,1C131.6,228.2,128.1,228.9,124.8,226.5z"/>
	<path class="st10" d="M131,207.4c-2.3-0.3-4.6-0.6-6.8-0.8c3.3-1.2,6.6-1.2,9.9,0.2c0.1,0.1,0.1,0.2,0.2,0.4
		C133.2,207.1,132.1,207.2,131,207.4z"/>
	<path class="st7" d="M134.2,207c0-0.1-0.1-0.3-0.2-0.4c4.5,0,8.9-0.1,13.4-0.1c-0.1,0.2-0.1,0.3-0.2,0.5
		C143,207.1,138.6,207.1,134.2,207z"/>
	<path class="st10" d="M121.9,206.6c0.3,0.7,0.5,1.4,0.8,2.2c0,1.3,0,2.5,0,3.8l0,0C122.1,210.6,119.8,208.9,121.9,206.6z"/>
	<path class="st10" d="M174.1,204.3c-2.3,0.7-4.5,2.3-7.1,0.8C169.3,204.2,171.7,203.9,174.1,204.3z"/>
	<path class="st10" d="M122.7,212.5c0.6,0.3,0.8,0.8,0.6,1.4c0,0.1-0.2,0.1-0.3,0.2C122.9,213.6,122.9,213,122.7,212.5
		C122.8,212.5,122.7,212.5,122.7,212.5z"/>
	<path class="st10" d="M177.1,203.5c-0.8,1-1.9,0.9-3,0.7C174.9,203.2,176,203.3,177.1,203.5z"/>
	<path class="st10" d="M181.2,202c-0.3,0.9-1.1,0.8-1.8,0.7C179.8,201.9,180.5,201.9,181.2,202z"/>
	<path class="st10" d="M179.3,202.8c-0.5,0.8-1.3,0.9-2.2,0.7C177.7,202.6,178.5,202.6,179.3,202.8z"/>
	<path class="st2" d="M104,238c-0.2,1.6-0.7,3-2.3,3.7C101.6,239.9,102.6,238.9,104,238z"/>
	<path class="st2" d="M106.2,234.9c0,1.6-0.9,2.4-2.2,3C104.3,236.7,104.8,235.5,106.2,234.9z"/>
	<path class="st2" d="M101.7,241.7c-0.5,1.2-0.8,2.6-2.3,3.1C99.8,243.4,100,242,101.7,241.7z"/>
	<path class="st2" d="M108.5,231.2c0.1,1.2-0.4,1.9-1.5,2.3C107.1,232.5,107.6,231.7,108.5,231.2z"/>
	<path class="st2" d="M107,233.5c0.1,0.7-0.1,1.3-0.8,1.5C105.9,234.2,106.3,233.8,107,233.5z"/>
	<path class="st2" d="M109.2,230.4c-0.3,0.3-0.5,0.5-0.8,0.8C108.5,230.8,108.7,230.4,109.2,230.4z"/>
	<path class="st7" d="M161.6,207.7c0.1,0.3,0.3,0.8,0.2,0.8c-0.5,0.4-0.8,0-1.1-0.3C161.1,208,161.4,207.9,161.6,207.7z"/>
	<path class="st7" d="M163,209.7c-0.2-0.2-0.4-0.4-0.6-0.6c0.1-0.1,0.2-0.2,0.2-0.2c0.2,0.2,0.4,0.4,0.6,0.6L163,209.7z"/>
	<path class="st7" d="M163.3,209.5c0.2,0.1,0.4,0.3,0.6,0.4c-0.1,0.1-0.2,0.3-0.3,0.2c-0.2-0.1-0.4-0.3-0.5-0.4
		C163,209.7,163.3,209.5,163.3,209.5z"/>
	<path class="st2" d="M152.9,215.4c0.3,0.1,0.7,0.3,0.4,0.7c-0.1,0.1-0.6-0.1-0.9-0.2C152.6,215.7,152.7,215.5,152.9,215.4z"/>
	<path class="st2" d="M146.8,227.5c-0.4-0.1-0.8-0.3-0.8-0.8C146.7,226.6,146.8,227,146.8,227.5z"/>
	<path class="st9" d="M169.2,238.6c0.6-0.8,1.4-0.7,2.3-0.6C170.9,238.8,170.1,238.8,169.2,238.6z"/>
	<path class="st9" d="M196.5,232.3c-0.8,0.3-1.5,0.5-2.3,0.8c-0.1-0.1-0.2-0.2-0.3-0.3c0.5-0.9,1.4-0.7,2.2-0.8
		C196.3,232.1,196.4,232.2,196.5,232.3z"/>
	<path class="st9" d="M224.8,221.5c0.3-0.2,0.7-0.4,1-0.6C225.4,221.1,225.1,221.3,224.8,221.5z"/>
	<path class="st6" d="M86.1,271.1c-0.2,0.5-0.3,1-0.5,1.6c-0.1-0.1-0.2-0.1-0.3-0.2c-0.2-0.6,0.1-1.1,0.6-1.5
		C85.9,271,86.1,271.1,86.1,271.1z"/>
	<path class="st5" d="M172.3,231.1c-1.1,0.7-2.2,1.5-3.6,0.3c0.7-1.5,2.1-1.6,3.4-1.8c0,0,0.2,0.2,0.2,0.2
		C172.3,230.2,172.3,230.6,172.3,231.1z"/>
	<path class="st5" d="M174.8,227.6c0.7,0,1.3,0,2-0.1c0,0,0,0,0,0c-0.3,0.5-0.5,1-0.8,1.5c0,0,0,0,0,0c-1.2,0.3-2.5,0.5-3.7,0.8
		c0,0-0.2-0.2-0.2-0.2C173,228.9,173.9,228.2,174.8,227.6z"/>
	<path class="st9" d="M172.3,229.8c1.2-0.3,2.5-0.5,3.7-0.8c-0.6,1.8-2.4,1.5-3.7,2.1C172.3,230.6,172.3,230.2,172.3,229.8z"/>
	<path class="st9" d="M169.3,236.5c-0.7,0.9-1.6,0.7-2.5,0.6C167.5,236.5,168.4,236.4,169.3,236.5z"/>
	<path class="st13" d="M203,136.2c-3.2,0.3-6-0.9-8.8-2.3c-8.9-4.7-18.6-6.1-28.6-5.4c-0.2,0-0.6,0.1-0.7-0.1
		c-0.5-0.4-0.1-0.5,0.2-0.6c0.1,0,0.2-0.1,0.3-0.2c2-0.5,4-1,6-1.5c4.4,0.4,8.9,0,13.3,0.8c2.1,0.4,1.7-2,2.5-3.1
		c1.6-0.1,3.1-0.2,4.6,0.7c-0.7,2.6-0.6,4.4,2.7,5.1c1.9,0.4,3.5,1.8,5.3,2.7c1.6,0.8,3.3,1.6,4-1.1c1.8,0.9,3,2.5,4.3,4.6
		C206.2,135.9,204.6,136.1,203,136.2z"/>
	<path class="st13" d="M209.6,133.1c-0.1-4.2-3.7-6-6.4-8.1c-4.2-3.3-9.1-5.5-14.7-5.6c-1.1,0-2-0.1-2.1-1.5
		c11.9-1.7,25,7.7,31.8,18c-2.2,0.4-4.2,0.1-6.2-0.2C212,134.3,211.6,132.9,209.6,133.1L209.6,133.1z"/>
	<path class="st10" d="M203.8,131.2c-0.6,2.8-2.4,1.9-4,1.1c-1.8-0.9-3.4-2.3-5.3-2.7c-3.3-0.7-3.4-2.5-2.7-5.1
		C196.5,125.5,200.6,127.6,203.8,131.2z"/>
	<path class="st10" d="M187.3,123.9c-0.8,1.1-0.4,3.4-2.5,3.1c-4.4-0.8-8.9-0.4-13.3-0.8C176.6,124.3,181.8,123,187.3,123.9z"/>
	<path class="st12" d="M145.2,129.3c0.1,0.5,0.1,1,0.2,1.5c0.1,0.9,2,0.3,1.4,1.6c-0.3,0.5-1.2,0.9-1.9,1.1c-1.4,0.3-1.1-1-1.4-1.7
		c-0.3-0.7-0.5-1.4-0.7-2.1C143.6,129.5,144.4,129.4,145.2,129.3z"/>
	<path class="st10" d="M209.6,133.1c2-0.2,2.3,1.2,2.4,2.7C210.4,135.6,210.1,134.4,209.6,133.1z"/>
	<path class="st15" d="M99.2,128.3c2.9,1.4,5.6,3,7.8,5.4c-0.5-0.1-1-0.2-1.4-0.4c-1.8-0.9-3.5-0.8-4.6,0.9c-1,1.5-1.1,3.3-0.2,4.9
		c0.8,1.4,2.2,1.6,3.6,1.2c2.2-0.6,2.6-2.4,2.6-4.4c0-0.7,0-1.5-0.1-2.2c0.7,0,1.5,0.1,2.2,0.1c0,0,0-0.1,0-0.1
		c-0.3,1.8,1.7,2.1,2.3,3.3c-0.6,4-2.6,6.8-6.7,8c-3.5,1-6.1-0.3-8.3-2.8c-2.3-2.5-1.5-5.6-1.4-8.5c0.7-1.3,1.4-2.5,2.1-3.8
		C97.8,129.4,98.5,128.9,99.2,128.3z"/>
	<path class="st13" d="M97.2,130c-0.7,1.3-1.4,2.5-2.1,3.8c-0.8,0.5-1,1.4-0.9,2.2c0.3,2.3-1.3,1.7-2.5,1.7
		c-1.6-3.1-2.6-6.5-3.5-9.9c0-0.9-0.1-1.7-0.1-2.6c0.1-0.8,0.6-1.2,1.4-1.3c0.3,0.1,0.6,0.2,0.8,0.4c0.3,1.3,1.2,1.5,2.4,1.3
		c0,0,0.1,0.1,0.1,0.1C93,128.3,95.9,128.3,97.2,130z"/>
	<path class="st2" d="M113.7,149.5c0,0.2,0,0.4,0,0.6c-7.1,0.9-13.7-0.2-18.9-5.6c0.2-0.3,0.4-0.5,0.7-0.8c4.5,3.8,9.8,5.3,15.6,5.5
		C111.9,149.2,113,148.4,113.7,149.5z"/>
	<path class="st2" d="M88.2,127.8c0.9,3.4,1.9,6.7,3.5,9.9c0.6,1.4,1.2,2.9,1.8,4.3c-0.2,0.2-0.5,0.4-0.7,0.7
		c-2.1-2-3.4-4.5-4.2-7.3C88,132.9,86.3,130.4,88.2,127.8z"/>
	<path class="st6" d="M111.5,137.1c-0.6-1.2-2.6-1.5-2.3-3.3C110.6,134.5,112.4,134.9,111.5,137.1z"/>
	<path class="st2" d="M93.6,141.9c0.6,0.6,1.3,1.2,1.9,1.8c-0.2,0.3-0.4,0.5-0.7,0.8c-0.6-0.6-1.3-1.3-1.9-1.9
		C93.1,142.3,93.4,142.1,93.6,141.9z"/>
	<path class="st12" d="M139.1,180.7c-0.5-0.2-0.9-0.3-1.4-0.5c-0.3-0.5-0.5-0.5-0.8,0c0,0,0,0,0,0c-0.5,0-1,0-1.4,0
		c-0.8-3.8-3.9-6.3-5.7-9.6c3.9,0.6,5.5-1.3,5.4-5.1c0-0.1,0.6-0.2,1-0.4c0.5,0.7,1,1.4,1.6,2.1c0,0.6-0.1,1.2-0.1,1.7
		c-0.2,0-0.5-0.1-0.7-0.1c-0.3-0.5-0.5-0.4-0.7,0.1c-0.4,2.8,0.8,4.7,3.3,5.9c1.4,0.7,2.8,1.5,4.2,2.3c0.8,0.2,1.5,1.2,2.3,0
		c3.3,0.7,5.9,2.7,9,3.9c0.1,0.4,0.1,0.7,0.2,1.1C149.8,181.7,144.5,181.2,139.1,180.7z"/>
	<path class="st13" d="M136.2,165.3c-0.3,0.1-1,0.3-1,0.4c0.1,3.8-1.5,5.6-5.4,5.1c-2.2-1.3-2.5-2.8-0.9-5.4c0.6-1-1.6-0.9-0.2-2.4
		c2.8-3.1,2.8-3.5,5.5-0.3C135.1,163.4,135.6,164.3,136.2,165.3z"/>
	<path class="st10" d="M143.7,177.2c-1.4-0.8-2.8-1.6-4.2-2.3c-2.5-1.2-3.7-3.1-3.3-5.9c0.2,0,0.5-0.1,0.7-0.1
		c0.2,0,0.5,0.1,0.7,0.1c0.4,0.7,0.8,1.4,1.9,1.1l-0.3,0c0,0,0.3,0,0.3,0c-0.5,2,0.7,2.5,2.3,2.5c0.1,0.2,0.3,0.4,0.4,0.6
		C141.9,174.9,143.9,175.7,143.7,177.2z"/>
	<path class="st13" d="M124.8,166.3c-3.3,0-0.8-3-2.1-4c1.1-0.9,2.2-1.8,4-3.2C126.5,162,125.8,164.2,124.8,166.3z"/>
	<path class="st13" d="M143.7,177.2c0.2-1.6-1.8-2.3-1.4-4c1,0.4,1.8,1.3,3,1c0.2,1,0.5,2,0.7,3
		C145.3,178.5,144.5,177.5,143.7,177.2z"/>
	<path class="st13" d="M141.9,172.7c-1.7,0-2.8-0.4-2.3-2.5C140.9,170.6,141.2,171.8,141.9,172.7z"/>
	<path class="st13" d="M139.6,170.2c-1,0.3-1.4-0.4-1.9-1.1c0-0.6,0.1-1.2,0.1-1.7C138.7,168.1,139.5,168.9,139.6,170.2z"/>
	<path class="st10" d="M92.9,142.6c0.6,0.6,1.3,1.3,1.9,1.9c5.3,5.4,11.8,6.5,18.9,5.6c0.7,1.4-0.7,1.2-1.2,1.5
		c-9.4,4.3-19,1.1-23.9-7.9c-3-5.5-3.1-11.4-2.3-17.4c0.1-0.6,0-2.8,1.8-1.1c0,0.9,0.1,1.7,0.1,2.6c-1.9,2.6-0.2,5.1,0.5,7.5
		C89.5,138,90.8,140.6,92.9,142.6z"/>
	<path class="st10" d="M97.2,130c-1.2-1.7-4.2-1.7-4.4-4.4c2.3,0.5,4.5,1.5,6.5,2.8C98.5,128.9,97.8,129.4,97.2,130z"/>
	<path class="st10" d="M92.7,125.5c-1.1,0.2-2,0-2.4-1.3C91.6,123.8,92.3,124.3,92.7,125.5z"/>
	<path class="st3" d="M84.8,182.2c0.6,0.7,1.1,1.3,1.7,2c0.1,0.4,0.2,0.9,0.3,1.3c-1.4-0.7-2.4-1.7-2.6-3.4c0,0,0.2-0.1,0.3,0
		C84.6,182.1,84.7,182.2,84.8,182.2z"/>
	<path class="st3" d="M86.7,185.5c0.5,0,0.7,0.3,0.8,0.8C87,186.3,86.8,186,86.7,185.5z"/>
	<path class="st14" d="M163.3,141.9c1.7,0.5,2.4-0.1,2.5-1.9c0-0.8,0.2-1.8,1.5-1.7c1.4,0.1,1,1.1,1,1.9c0,0.8-0.6,1.9,0.7,2.1
		c1.3,0.1,1-1.1,1.1-1.9c0.1-1,0.4-1.7,1.6-1.5c1.3,0.2,1.1,1.2,0.8,2c-0.6,1.7,0.5,2.1,1.7,2.6c3.7,1.6,4.4,3.6,2.4,6.9
		c-0.5,0.9-0.6,1.1,0.1,2c3.1,3.7,1.5,7.9-3.3,8.7c-1.7,0.3-3.7-0.1-3.4,2.7c0.1,0.8-0.2,1.5-1.3,1.3c-1-0.2-0.9-1-1-1.7
		c-0.1-0.9,0.8-2.2-0.8-2.4c-1.5-0.2-1.2,1.3-1.4,2.2c-0.2,0.7-0.1,1.5-1.2,1.5c-1.1,0-1.3-0.6-1.1-1.5c0.6-2.4-0.5-3.1-2.7-3.1
		c-0.6,0-1.7,0.3-1.7-0.8c0-0.8,0.2-2,1.3-1.9c2.4,0.1,2-1.6,2.2-3c0.2-2.1,0.6-4.2,0.7-6.3c0.1-1.6,1-3.7-2-3.8
		c-0.8,0-0.7-0.9-0.6-1.5C161.2,141,162.4,142.1,163.3,141.9z M169.3,158.2c1.7-0.4,4.2,0,4.2-2.5c0-2.7-2.6-2.9-4.7-3.2
		c-3.1-0.5-2,2.2-2.4,3.5C165.8,158.5,168,157.8,169.3,158.2z M169.9,150.3c1.6-0.2,3.4-0.3,3.2-2.6c-0.2-2.3-2.3-2.5-3.9-2.6
		c-2.7-0.2-1.6,2.3-1.9,3.6C166.8,150.8,168.8,150,169.9,150.3z"/>
	<path class="st10" d="M197.1,158.5c-1.5,3.4-2.8,7-5.1,10c-3,3.3-6.6,5.5-10.8,6.7c-0.8,0.1-1.7,0.3-3.1,0.5
		c7.4-9,16-16.5,19.8-27.8C198.9,151.1,198.8,152.2,197.1,158.5z"/>
	<path class="st10" d="M153.2,167.5c-5.8-2.2-8.7-7.4-12.3-11.9c-0.9-1.1,0.3-1.8,0.9-2.5c0.9-1.2,1.9-2.3,2.8-3.4
		c2.8,3.9,3.3,8.9,5.8,13C151.3,164.3,152.2,165.9,153.2,167.5z"/>
	<path class="st12" d="M137,181.1c0,0.2,0,0.5,0,0.7C136.5,181.5,136.4,181.3,137,181.1z"/>
	<path class="st13" d="M155.7,181.8c0.9-0.2,1.7-0.2,2.2,0.7C157.2,182.2,156.1,183,155.7,181.8z"/>
	<path class="st13" d="M155.2,182.2c-0.1-0.4-0.1-0.7-0.2-1.1c0.4,0,1-0.1,0.7,0.7C155.5,181.9,155.4,182.1,155.2,182.2z"/>
	<path class="st10" d="M137,180.3c0.3-0.5,0.5-0.5,0.8,0C137.5,180.3,137.2,180.3,137,180.3z"/>
	<path class="st5" d="M196.2,232c-0.8,0-1.7-0.1-2.2,0.8c-0.7,0-1.4,0-2.4,0c1.5-1.4,3.1-1.5,4.7-1.5l0,0
		C196.3,231.5,196.2,231.7,196.2,232z"/>
	<path class="st5" d="M196.2,231.2c0.1-1,0.4-1.6,1.5-1.3c0.2,0.1,0.5,0.7,0.4,0.8C197.7,231.4,196.9,231.2,196.2,231.2
		C196.3,231.3,196.2,231.2,196.2,231.2z"/>
	<path class="st5" d="M178.2,226.7c0.3-0.5,0.8-0.8,1.4-0.6c0.1,0,0.1,0.2,0.2,0.3C179.3,226.6,178.8,226.7,178.2,226.7
		C178.3,226.8,178.2,226.7,178.2,226.7z"/>
	<path class="st5" d="M178.3,226.8c-0.3,0.6-0.9,0.7-1.5,0.7c0,0,0,0,0,0C177.2,227.2,177.7,227,178.3,226.8
		C178.2,226.7,178.3,226.8,178.3,226.8z"/>
	<path class="st8" d="M107,133.7c0,0.7,0.1,1.5,0.1,2.2c-0.1,1.9-0.4,3.8-2.6,4.4c-1.4,0.4-2.8,0.2-3.6-1.2
		c-0.9-1.6-0.8-3.4,0.2-4.9c1.1-1.7,2.8-1.7,4.6-0.9C106.1,133.6,106.6,133.6,107,133.7C107,133.8,107,133.7,107,133.7z"/>
	<path class="st13" d="M137,169c-0.2,0-0.5,0.1-0.7,0.1C136.5,168.5,136.7,168.4,137,169z"/>
	<path class="st8" d="M169.3,158.2c-1.3-0.4-3.5,0.3-2.8-2.2c0.4-1.3-0.7-4,2.4-3.5c2.1,0.3,4.6,0.5,4.7,3.2
		C173.5,158.2,171,157.8,169.3,158.2z"/>
	<path class="st8" d="M169.9,150.3c-1.1-0.3-3,0.5-2.6-1.6c0.3-1.2-0.8-3.7,1.9-3.6c1.6,0.1,3.7,0.3,3.9,2.6
		C173.3,150,171.5,150.1,169.9,150.3z"/>
</g>
</svg>
